<svg width="215" height="143" viewBox="0 0 215 143" fill="none" xmlns="http://www.w3.org/2000/svg">
<path d="M8.645 57L3.192 50.958V57H1.463V43.757H3.192V49.894L8.664 43.757H10.849L4.845 50.388L10.906 57H8.645ZM20.893 50.179C21.3744 50.255 21.8114 50.4513 22.204 50.768C22.6094 51.0847 22.926 51.4773 23.154 51.946C23.3947 52.4147 23.515 52.915 23.515 53.447C23.515 54.1183 23.344 54.7263 23.002 55.271C22.66 55.803 22.1597 56.2273 21.501 56.544C20.855 56.848 20.0887 57 19.202 57H14.262V43.757H19.012C19.9114 43.757 20.6777 43.909 21.311 44.213C21.9444 44.5043 22.4194 44.9033 22.736 45.41C23.0527 45.9167 23.211 46.4867 23.211 47.12C23.211 47.9053 22.9957 48.5577 22.565 49.077C22.147 49.5837 21.5897 49.951 20.893 50.179ZM15.991 49.476H18.898C19.7087 49.476 20.3357 49.286 20.779 48.906C21.2224 48.526 21.444 48.0003 21.444 47.329C21.444 46.6577 21.2224 46.132 20.779 45.752C20.3357 45.372 19.696 45.182 18.86 45.182H15.991V49.476ZM19.05 55.575C19.9114 55.575 20.5827 55.3723 21.064 54.967C21.5454 54.5617 21.786 53.998 21.786 53.276C21.786 52.5413 21.5327 51.965 21.026 51.547C20.5194 51.1163 19.8417 50.901 18.993 50.901H15.991V55.575H19.05ZM35.5588 43.757V57H33.8298V43.757H35.5588ZM53.3636 43.852V57H51.6346V47.196L47.2646 57H46.0486L41.6596 47.177V57H39.9306V43.852H41.7926L46.6566 54.72L51.5206 43.852H53.3636ZM71.1538 43.852V57H69.4248V47.196L65.0548 57H63.8388L59.4498 47.177V57H57.7208V43.852H59.5828L64.4468 54.72L69.3108 43.852H71.1538ZM77.2401 43.757V57H75.5111V43.757H77.2401ZM91.6438 47.595C91.2765 46.8223 90.7445 46.227 90.0478 45.809C89.3512 45.3783 88.5405 45.163 87.6158 45.163C86.6912 45.163 85.8552 45.3783 85.1078 45.809C84.3732 46.227 83.7905 46.835 83.3598 47.633C82.9418 48.4183 82.7328 49.3303 82.7328 50.369C82.7328 51.4077 82.9418 52.3197 83.3598 53.105C83.7905 53.8903 84.3732 54.4983 85.1078 54.929C85.8552 55.347 86.6912 55.556 87.6158 55.556C88.9078 55.556 89.9718 55.1697 90.8078 54.397C91.6438 53.6243 92.1315 52.5793 92.2708 51.262H86.9888V49.856H94.1138V51.186C94.0125 52.2753 93.6705 53.276 93.0878 54.188C92.5052 55.0873 91.7388 55.803 90.7888 56.335C89.8388 56.8543 88.7812 57.114 87.6158 57.114C86.3872 57.114 85.2662 56.829 84.2528 56.259C83.2395 55.6763 82.4352 54.872 81.8398 53.846C81.2572 52.82 80.9658 51.661 80.9658 50.369C80.9658 49.077 81.2572 47.918 81.8398 46.892C82.4352 45.8533 83.2395 45.049 84.2528 44.479C85.2662 43.8963 86.3872 43.605 87.6158 43.605C89.0218 43.605 90.2632 43.9533 91.3398 44.65C92.4292 45.3467 93.2208 46.3283 93.7148 47.595H91.6438ZM104.798 57L101.644 51.585H99.5539V57H97.8249V43.757H102.1C103.101 43.757 103.943 43.928 104.627 44.27C105.324 44.612 105.843 45.0743 106.185 45.657C106.527 46.2397 106.698 46.9047 106.698 47.652C106.698 48.564 106.432 49.3683 105.9 50.065C105.381 50.7617 104.595 51.224 103.544 51.452L106.869 57H104.798ZM99.5539 50.198H102.1C103.037 50.198 103.74 49.97 104.209 49.514C104.678 49.0453 104.912 48.4247 104.912 47.652C104.912 46.8667 104.678 46.2587 104.209 45.828C103.753 45.3973 103.05 45.182 102.1 45.182H99.5539V50.198ZM118.637 54.055H112.861L111.797 57H109.973L114.761 43.833H116.756L121.525 57H119.701L118.637 54.055ZM118.143 52.649L115.749 45.961L113.355 52.649H118.143ZM133.188 43.757V45.163H129.578V57H127.849V45.163H124.22V43.757H133.188ZM138.471 43.757V57H136.742V43.757H138.471ZM148.846 57.133C147.618 57.133 146.497 56.848 145.483 56.278C144.47 55.6953 143.666 54.891 143.07 53.865C142.488 52.8263 142.196 51.661 142.196 50.369C142.196 49.077 142.488 47.918 143.07 46.892C143.666 45.8533 144.47 45.049 145.483 44.479C146.497 43.8963 147.618 43.605 148.846 43.605C150.088 43.605 151.215 43.8963 152.228 44.479C153.242 45.049 154.04 45.847 154.622 46.873C155.205 47.899 155.496 49.0643 155.496 50.369C155.496 51.6737 155.205 52.839 154.622 53.865C154.04 54.891 153.242 55.6953 152.228 56.278C151.215 56.848 150.088 57.133 148.846 57.133ZM148.846 55.632C149.771 55.632 150.601 55.4167 151.335 54.986C152.083 54.5553 152.665 53.941 153.083 53.143C153.514 52.345 153.729 51.4203 153.729 50.369C153.729 49.305 153.514 48.3803 153.083 47.595C152.665 46.797 152.089 46.1827 151.354 45.752C150.62 45.3213 149.784 45.106 148.846 45.106C147.909 45.106 147.073 45.3213 146.338 45.752C145.604 46.1827 145.021 46.797 144.59 47.595C144.172 48.3803 143.963 49.305 143.963 50.369C143.963 51.4203 144.172 52.345 144.59 53.143C145.021 53.941 145.604 54.5553 146.338 54.986C147.086 55.4167 147.922 55.632 148.846 55.632ZM169.616 57H167.887L160.933 46.455V57H159.204V43.738H160.933L167.887 54.264V43.738H169.616V57ZM182.208 43.757V57H180.479V43.757H182.208ZM196.991 57H195.262L188.308 46.455V57H186.579V43.738H188.308L195.262 54.264V43.738H196.991V57ZM200.718 50.369C200.718 49.077 201.009 47.918 201.592 46.892C202.174 45.8533 202.966 45.0427 203.967 44.46C204.98 43.8773 206.101 43.586 207.33 43.586C208.774 43.586 210.034 43.9343 211.111 44.631C212.187 45.3277 212.973 46.3157 213.467 47.595H211.396C211.028 46.797 210.496 46.1827 209.8 45.752C209.116 45.3213 208.292 45.106 207.33 45.106C206.405 45.106 205.575 45.3213 204.841 45.752C204.106 46.1827 203.53 46.797 203.112 47.595C202.694 48.3803 202.485 49.305 202.485 50.369C202.485 51.4203 202.694 52.345 203.112 53.143C203.53 53.9283 204.106 54.5363 204.841 54.967C205.575 55.3977 206.405 55.613 207.33 55.613C208.292 55.613 209.116 55.404 209.8 54.986C210.496 54.5553 211.028 53.941 211.396 53.143H213.467C212.973 54.4097 212.187 55.3913 211.111 56.088C210.034 56.772 208.774 57.114 207.33 57.114C206.101 57.114 204.98 56.829 203.967 56.259C202.966 55.6763 202.174 54.872 201.592 53.846C201.009 52.82 200.718 51.661 200.718 50.369Z" fill="black"/>
<path fill-rule="evenodd" clip-rule="evenodd" d="M100.059 92.43L95.3586 95.68L93.0886 93.21L97.7186 89.85C97.7186 89.85 101.159 89.42 100.059 92.43Z" fill="#009DD9"/>
<path fill-rule="evenodd" clip-rule="evenodd" d="M116.119 112.53L111.209 115.41L112.489 118.5L117.489 115.71C117.489 115.71 119.359 112.8 116.119 112.53Z" fill="#009DD9"/>
<path fill-rule="evenodd" clip-rule="evenodd" d="M107.029 97.46L102.639 101.08L100.169 98.81L104.519 95.08C104.519 95.08 107.879 94.37 107.029 97.46Z" fill="#009DD9"/>
<path fill-rule="evenodd" clip-rule="evenodd" d="M117.269 121.83L112.359 124.71L113.639 127.8L118.639 125.01C118.639 125.01 120.459 122.1 117.269 121.83Z" fill="#009DD9"/>
<path fill-rule="evenodd" clip-rule="evenodd" d="M102.579 101.18L100.189 101.07L92.8686 107.26L102.639 103.82L102.579 101.18Z" fill="#F15822"/>
<path fill-rule="evenodd" clip-rule="evenodd" d="M96.8486 94.88L94.4586 94.77L87.1386 100.95L96.8986 97.51L96.8486 94.88Z" fill="#F15822"/>
<path fill-rule="evenodd" clip-rule="evenodd" d="M90.3486 89.05L87.9586 88.94L80.6386 95.13L90.3986 91.68L90.3486 89.05Z" fill="#F15822"/>
<path fill-rule="evenodd" clip-rule="evenodd" d="M113.189 122.39L110.799 122.29L103.469 128.47L113.239 125.03L113.189 122.39Z" fill="#F15822"/>
<path fill-rule="evenodd" clip-rule="evenodd" d="M110.319 114.37L107.929 114.26L100.609 120.44L110.369 117L110.319 114.37Z" fill="#F15822"/>
<path fill-rule="evenodd" clip-rule="evenodd" d="M115.579 130.8L113.459 130.7L106.979 136.18L115.629 133.13L115.579 130.8Z" fill="#F15822"/>
<path fill-rule="evenodd" clip-rule="evenodd" d="M73.14 29.3013C106.2 2.79133 129.02 1.66134 141.51 5.30134C154.36 9.04134 160.8 22.3013 155.51 44.3713C151.27 28.2913 143.11 18.2613 131.53 15.4613C116.53 11.8713 99.97 18.2413 73.14 29.3013Z" fill="#CBCACA"/>
<path fill-rule="evenodd" clip-rule="evenodd" d="M70 32.6613C116.42 -15.0387 191.29 -12.3587 154.53 53.0813C174.83 -21.4587 103.24 4.33132 70 32.6613Z" fill="#821517"/>
<path fill-rule="evenodd" clip-rule="evenodd" d="M16.9086 64L22.0486 65C12.3986 83.37 12.4186 94.16 17.2586 102.49C22.5886 111.65 36.7386 116.76 64.2586 107.42C40.0586 120.03 19.3486 116.89 12.0586 105.8C7.28857 98.57 4.44858 90 16.9086 64Z" fill="#821517"/>
<path fill-rule="evenodd" clip-rule="evenodd" d="M92.9186 99.6201L96.6186 102.62C69.8386 120 44.6186 122.68 20.1786 116.09C48.9086 120 74.8286 114.56 92.9186 99.6201Z" fill="#009DD9"/>
<path fill-rule="evenodd" clip-rule="evenodd" d="M103.719 120.12L105.509 123.12C78.7686 137.46 59.5086 133.12 40.9186 127.29C63.3586 132.7 84.4986 131.59 103.719 120.12Z" fill="#009DD9"/>
<path fill-rule="evenodd" clip-rule="evenodd" d="M113.089 143L116.919 139.74L114.469 103.89L102.469 111.35C102.469 111.35 107.259 113.56 113.089 143Z" fill="#FBAA19"/>
<path fill-rule="evenodd" clip-rule="evenodd" d="M78.9786 85.54L83.6886 83.77L113.859 103.29L101.499 110.2C101.499 110.2 101.879 104.9 78.9786 85.54Z" fill="#FED435"/>
<path fill-rule="evenodd" clip-rule="evenodd" d="M130.559 94C135.069 101.55 96.7486 116.72 91.7586 119.42L90.4086 131.35C89.5586 132.55 88.7586 132.2 87.9986 130.72C86.8886 122.02 86.1486 118.35 78.1586 113.54C76.4186 110.88 80.4786 111.1 82.0286 111.98L89.0286 115.98C93.7386 113.1 126.699 87.56 130.559 94Z" fill="#F15822"/>
<path fill-rule="evenodd" clip-rule="evenodd" d="M85.4686 120.56L130.539 94.23C130.508 94.1506 130.471 94.0737 130.429 94C126.569 87.52 93.6086 113.06 88.9286 116L82.0386 112C80.3886 111.07 76.2586 110.81 78.0386 113.51C81.9586 115.91 84.1386 118 85.4686 120.56Z" fill="#F8951D"/>
<path fill-rule="evenodd" clip-rule="evenodd" d="M89.1986 117.71L86.8186 117.6L79.4886 123.79L89.2586 120.34L89.1986 117.71Z" fill="#DB1E25"/>
<path d="M30.78 68.636L28.056 73.844V77H26.964V73.844L24.228 68.636H25.44L27.504 72.872L29.568 68.636H30.78ZM35.3998 77.108C34.7838 77.108 34.2238 76.968 33.7198 76.688C33.2238 76.408 32.8318 76.012 32.5438 75.5C32.2638 74.98 32.1238 74.38 32.1238 73.7C32.1238 73.028 32.2678 72.436 32.5558 71.924C32.8518 71.404 33.2518 71.008 33.7558 70.736C34.2598 70.456 34.8238 70.316 35.4478 70.316C36.0718 70.316 36.6358 70.456 37.1398 70.736C37.6438 71.008 38.0398 71.4 38.3278 71.912C38.6238 72.424 38.7718 73.02 38.7718 73.7C38.7718 74.38 38.6198 74.98 38.3158 75.5C38.0198 76.012 37.6158 76.408 37.1038 76.688C36.5918 76.968 36.0238 77.108 35.3998 77.108ZM35.3998 76.148C35.7918 76.148 36.1598 76.056 36.5038 75.872C36.8478 75.688 37.1238 75.412 37.3318 75.044C37.5478 74.676 37.6558 74.228 37.6558 73.7C37.6558 73.172 37.5518 72.724 37.3438 72.356C37.1358 71.988 36.8638 71.716 36.5278 71.54C36.1918 71.356 35.8278 71.264 35.4358 71.264C35.0358 71.264 34.6678 71.356 34.3318 71.54C34.0038 71.716 33.7398 71.988 33.5398 72.356C33.3398 72.724 33.2398 73.172 33.2398 73.7C33.2398 74.236 33.3358 74.688 33.5278 75.056C33.7278 75.424 33.9918 75.7 34.3198 75.884C34.6478 76.06 35.0078 76.148 35.3998 76.148ZM46.6396 70.424V77H45.5476V76.028C45.3396 76.364 45.0476 76.628 44.6716 76.82C44.3036 77.004 43.8956 77.096 43.4476 77.096C42.9356 77.096 42.4756 76.992 42.0676 76.784C41.6596 76.568 41.3356 76.248 41.0956 75.824C40.8636 75.4 40.7476 74.884 40.7476 74.276V70.424H41.8276V74.132C41.8276 74.78 41.9916 75.28 42.3196 75.632C42.6476 75.976 43.0956 76.148 43.6636 76.148C44.2476 76.148 44.7076 75.968 45.0436 75.608C45.3796 75.248 45.5476 74.724 45.5476 74.036V70.424H46.6396ZM50.1754 71.492C50.3674 71.116 50.6394 70.824 50.9914 70.616C51.3514 70.408 51.7874 70.304 52.2994 70.304V71.432H52.0114C50.7874 71.432 50.1754 72.096 50.1754 73.424V77H49.0834V70.424H50.1754V71.492ZM63.5512 71.084C63.5512 71.78 63.3112 72.36 62.8312 72.824C62.3592 73.28 61.6352 73.508 60.6592 73.508H59.0512V77H57.9592V68.636H60.6592C61.6032 68.636 62.3192 68.864 62.8072 69.32C63.3032 69.776 63.5512 70.364 63.5512 71.084ZM60.6592 72.608C61.2672 72.608 61.7152 72.476 62.0032 72.212C62.2912 71.948 62.4352 71.572 62.4352 71.084C62.4352 70.052 61.8432 69.536 60.6592 69.536H59.0512V72.608H60.6592ZM65.1004 73.688C65.1004 73.016 65.2364 72.428 65.5084 71.924C65.7804 71.412 66.1524 71.016 66.6244 70.736C67.1044 70.456 67.6364 70.316 68.2204 70.316C68.7964 70.316 69.2964 70.44 69.7204 70.688C70.1444 70.936 70.4604 71.248 70.6684 71.624V70.424H71.7724V77H70.6684V75.776C70.4524 76.16 70.1284 76.48 69.6964 76.736C69.2724 76.984 68.7764 77.108 68.2084 77.108C67.6244 77.108 67.0964 76.964 66.6244 76.676C66.1524 76.388 65.7804 75.984 65.5084 75.464C65.2364 74.944 65.1004 74.352 65.1004 73.688ZM70.6684 73.7C70.6684 73.204 70.5684 72.772 70.3684 72.404C70.1684 72.036 69.8964 71.756 69.5524 71.564C69.2164 71.364 68.8444 71.264 68.4364 71.264C68.0284 71.264 67.6564 71.36 67.3204 71.552C66.9844 71.744 66.7164 72.024 66.5164 72.392C66.3164 72.76 66.2164 73.192 66.2164 73.688C66.2164 74.192 66.3164 74.632 66.5164 75.008C66.7164 75.376 66.9844 75.66 67.3204 75.86C67.6564 76.052 68.0284 76.148 68.4364 76.148C68.8444 76.148 69.2164 76.052 69.5524 75.86C69.8964 75.66 70.1684 75.376 70.3684 75.008C70.5684 74.632 70.6684 74.196 70.6684 73.7ZM75.5498 71.324V75.2C75.5498 75.52 75.6178 75.748 75.7538 75.884C75.8898 76.012 76.1258 76.076 76.4618 76.076H77.2658V77H76.2818C75.6738 77 75.2178 76.86 74.9138 76.58C74.6098 76.3 74.4578 75.84 74.4578 75.2V71.324H73.6058V70.424H74.4578V68.768H75.5498V70.424H77.2658V71.324H75.5498ZM82.4528 70.304C82.9488 70.304 83.3968 70.412 83.7968 70.628C84.1968 70.836 84.5088 71.152 84.7328 71.576C84.9648 72 85.0808 72.516 85.0808 73.124V77H84.0008V73.28C84.0008 72.624 83.8368 72.124 83.5088 71.78C83.1808 71.428 82.7328 71.252 82.1648 71.252C81.5888 71.252 81.1288 71.432 80.7848 71.792C80.4488 72.152 80.2808 72.676 80.2808 73.364V77H79.1888V68.12H80.2808V71.36C80.4968 71.024 80.7928 70.764 81.1688 70.58C81.5528 70.396 81.9808 70.304 82.4528 70.304ZM96.2246 70.424L94.1726 77H93.0446L91.4606 71.78L89.8766 77H88.7486L86.6846 70.424H87.8006L89.3126 75.944L90.9446 70.424H92.0606L93.6566 75.956L95.1446 70.424H96.2246ZM97.5004 73.688C97.5004 73.016 97.6364 72.428 97.9084 71.924C98.1804 71.412 98.5524 71.016 99.0244 70.736C99.5044 70.456 100.036 70.316 100.62 70.316C101.196 70.316 101.696 70.44 102.12 70.688C102.544 70.936 102.86 71.248 103.068 71.624V70.424H104.172V77H103.068V75.776C102.852 76.16 102.528 76.48 102.096 76.736C101.672 76.984 101.176 77.108 100.608 77.108C100.024 77.108 99.4964 76.964 99.0244 76.676C98.5524 76.388 98.1804 75.984 97.9084 75.464C97.6364 74.944 97.5004 74.352 97.5004 73.688ZM103.068 73.7C103.068 73.204 102.968 72.772 102.768 72.404C102.568 72.036 102.296 71.756 101.952 71.564C101.616 71.364 101.244 71.264 100.836 71.264C100.428 71.264 100.056 71.36 99.7204 71.552C99.3844 71.744 99.1164 72.024 98.9164 72.392C98.7164 72.76 98.6164 73.192 98.6164 73.688C98.6164 74.192 98.7164 74.632 98.9164 75.008C99.1164 75.376 99.3844 75.66 99.7204 75.86C100.056 76.052 100.428 76.148 100.836 76.148C101.244 76.148 101.616 76.052 101.952 75.86C102.296 75.66 102.568 75.376 102.768 75.008C102.968 74.632 103.068 74.196 103.068 73.7ZM112.282 70.424L108.322 80.096H107.194L108.49 76.928L105.838 70.424H107.05L109.114 75.752L111.154 70.424H112.282ZM122.927 68.636V69.524H120.647V77H119.555V69.524H117.263V68.636H122.927ZM127.739 77.108C127.123 77.108 126.563 76.968 126.059 76.688C125.563 76.408 125.171 76.012 124.883 75.5C124.603 74.98 124.463 74.38 124.463 73.7C124.463 73.028 124.607 72.436 124.895 71.924C125.191 71.404 125.591 71.008 126.095 70.736C126.599 70.456 127.163 70.316 127.787 70.316C128.411 70.316 128.975 70.456 129.479 70.736C129.983 71.008 130.379 71.4 130.667 71.912C130.963 72.424 131.111 73.02 131.111 73.7C131.111 74.38 130.959 74.98 130.655 75.5C130.359 76.012 129.955 76.408 129.443 76.688C128.931 76.968 128.363 77.108 127.739 77.108ZM127.739 76.148C128.131 76.148 128.499 76.056 128.843 75.872C129.187 75.688 129.463 75.412 129.671 75.044C129.887 74.676 129.995 74.228 129.995 73.7C129.995 73.172 129.891 72.724 129.683 72.356C129.475 71.988 129.203 71.716 128.867 71.54C128.531 71.356 128.167 71.264 127.775 71.264C127.375 71.264 127.007 71.356 126.671 71.54C126.343 71.716 126.079 71.988 125.879 72.356C125.679 72.724 125.579 73.172 125.579 73.7C125.579 74.236 125.675 74.688 125.867 75.056C126.067 75.424 126.331 75.7 126.659 75.884C126.987 76.06 127.347 76.148 127.739 76.148ZM136.538 72.812C136.538 71.996 136.722 71.264 137.09 70.616C137.458 69.96 137.958 69.448 138.59 69.08C139.23 68.712 139.938 68.528 140.714 68.528C141.626 68.528 142.422 68.748 143.102 69.188C143.782 69.628 144.278 70.252 144.59 71.06H143.282C143.05 70.556 142.714 70.168 142.274 69.896C141.842 69.624 141.322 69.488 140.714 69.488C140.13 69.488 139.606 69.624 139.142 69.896C138.678 70.168 138.314 70.556 138.05 71.06C137.786 71.556 137.654 72.14 137.654 72.812C137.654 73.476 137.786 74.06 138.05 74.564C138.314 75.06 138.678 75.444 139.142 75.716C139.606 75.988 140.13 76.124 140.714 76.124C141.322 76.124 141.842 75.992 142.274 75.728C142.714 75.456 143.05 75.068 143.282 74.564H144.59C144.278 75.364 143.782 75.984 143.102 76.424C142.422 76.856 141.626 77.072 140.714 77.072C139.938 77.072 139.23 76.892 138.59 76.532C137.958 76.164 137.458 75.656 137.09 75.008C136.722 74.36 136.538 73.628 136.538 72.812ZM146.407 73.688C146.407 73.016 146.543 72.428 146.815 71.924C147.087 71.412 147.459 71.016 147.931 70.736C148.411 70.456 148.943 70.316 149.527 70.316C150.103 70.316 150.603 70.44 151.027 70.688C151.451 70.936 151.767 71.248 151.975 71.624V70.424H153.079V77H151.975V75.776C151.759 76.16 151.435 76.48 151.003 76.736C150.579 76.984 150.083 77.108 149.515 77.108C148.931 77.108 148.403 76.964 147.931 76.676C147.459 76.388 147.087 75.984 146.815 75.464C146.543 74.944 146.407 74.352 146.407 73.688ZM151.975 73.7C151.975 73.204 151.875 72.772 151.675 72.404C151.475 72.036 151.203 71.756 150.859 71.564C150.523 71.364 150.151 71.264 149.743 71.264C149.335 71.264 148.963 71.36 148.627 71.552C148.291 71.744 148.023 72.024 147.823 72.392C147.623 72.76 147.523 73.192 147.523 73.688C147.523 74.192 147.623 74.632 147.823 75.008C148.023 75.376 148.291 75.66 148.627 75.86C148.963 76.052 149.335 76.148 149.743 76.148C150.151 76.148 150.523 76.052 150.859 75.86C151.203 75.66 151.475 75.376 151.675 75.008C151.875 74.632 151.975 74.196 151.975 73.7ZM158.729 70.304C159.529 70.304 160.177 70.548 160.673 71.036C161.169 71.516 161.417 72.212 161.417 73.124V77H160.337V73.28C160.337 72.624 160.173 72.124 159.845 71.78C159.517 71.428 159.069 71.252 158.501 71.252C157.925 71.252 157.465 71.432 157.121 71.792C156.785 72.152 156.617 72.676 156.617 73.364V77H155.525V70.424H156.617V71.36C156.833 71.024 157.125 70.764 157.493 70.58C157.869 70.396 158.281 70.304 158.729 70.304ZM163.393 73.688C163.393 73.016 163.529 72.428 163.801 71.924C164.073 71.412 164.445 71.016 164.917 70.736C165.397 70.456 165.929 70.316 166.513 70.316C167.089 70.316 167.589 70.44 168.013 70.688C168.437 70.936 168.753 71.248 168.961 71.624V70.424H170.065V77H168.961V75.776C168.745 76.16 168.421 76.48 167.989 76.736C167.565 76.984 167.069 77.108 166.501 77.108C165.917 77.108 165.389 76.964 164.917 76.676C164.445 76.388 164.073 75.984 163.801 75.464C163.529 74.944 163.393 74.352 163.393 73.688ZM168.961 73.7C168.961 73.204 168.861 72.772 168.661 72.404C168.461 72.036 168.189 71.756 167.845 71.564C167.509 71.364 167.137 71.264 166.729 71.264C166.321 71.264 165.949 71.36 165.613 71.552C165.277 71.744 165.009 72.024 164.809 72.392C164.609 72.76 164.509 73.192 164.509 73.688C164.509 74.192 164.609 74.632 164.809 75.008C165.009 75.376 165.277 75.66 165.613 75.86C165.949 76.052 166.321 76.148 166.729 76.148C167.137 76.148 167.509 76.052 167.845 75.86C168.189 75.66 168.461 75.376 168.661 75.008C168.861 74.632 168.961 74.196 168.961 73.7ZM172.102 73.688C172.102 73.016 172.238 72.428 172.51 71.924C172.782 71.412 173.154 71.016 173.626 70.736C174.106 70.456 174.642 70.316 175.234 70.316C175.746 70.316 176.222 70.436 176.662 70.676C177.102 70.908 177.438 71.216 177.67 71.6V68.12H178.774V77H177.67V75.764C177.454 76.156 177.134 76.48 176.71 76.736C176.286 76.984 175.79 77.108 175.222 77.108C174.638 77.108 174.106 76.964 173.626 76.676C173.154 76.388 172.782 75.984 172.51 75.464C172.238 74.944 172.102 74.352 172.102 73.688ZM177.67 73.7C177.67 73.204 177.57 72.772 177.37 72.404C177.17 72.036 176.898 71.756 176.554 71.564C176.218 71.364 175.846 71.264 175.438 71.264C175.03 71.264 174.658 71.36 174.322 71.552C173.986 71.744 173.718 72.024 173.518 72.392C173.318 72.76 173.218 73.192 173.218 73.688C173.218 74.192 173.318 74.632 173.518 75.008C173.718 75.376 173.986 75.66 174.322 75.86C174.658 76.052 175.03 76.148 175.438 76.148C175.846 76.148 176.218 76.052 176.554 75.86C176.898 75.66 177.17 75.376 177.37 75.008C177.57 74.632 177.67 74.196 177.67 73.7ZM180.811 73.688C180.811 73.016 180.947 72.428 181.219 71.924C181.491 71.412 181.863 71.016 182.335 70.736C182.815 70.456 183.347 70.316 183.931 70.316C184.507 70.316 185.007 70.44 185.431 70.688C185.855 70.936 186.171 71.248 186.379 71.624V70.424H187.483V77H186.379V75.776C186.163 76.16 185.839 76.48 185.407 76.736C184.983 76.984 184.487 77.108 183.919 77.108C183.335 77.108 182.807 76.964 182.335 76.676C181.863 76.388 181.491 75.984 181.219 75.464C180.947 74.944 180.811 74.352 180.811 73.688ZM186.379 73.7C186.379 73.204 186.279 72.772 186.079 72.404C185.879 72.036 185.607 71.756 185.263 71.564C184.927 71.364 184.555 71.264 184.147 71.264C183.739 71.264 183.367 71.36 183.031 71.552C182.695 71.744 182.427 72.024 182.227 72.392C182.027 72.76 181.927 73.192 181.927 73.688C181.927 74.192 182.027 74.632 182.227 75.008C182.427 75.376 182.695 75.66 183.031 75.86C183.367 76.052 183.739 76.148 184.147 76.148C184.555 76.148 184.927 76.052 185.263 75.86C185.607 75.66 185.879 75.376 186.079 75.008C186.279 74.632 186.379 74.196 186.379 73.7Z" fill="#231F20"/>
<path fill-rule="evenodd" clip-rule="evenodd" d="M100.059 92.43L95.3586 95.68L93.0886 93.21L97.7186 89.85C97.7186 89.85 101.159 89.42 100.059 92.43Z" fill="#009DD9"/>
<path fill-rule="evenodd" clip-rule="evenodd" d="M116.119 112.53L111.209 115.41L112.489 118.5L117.489 115.71C117.489 115.71 119.359 112.8 116.119 112.53Z" fill="#009DD9"/>
<path fill-rule="evenodd" clip-rule="evenodd" d="M107.029 97.46L102.639 101.08L100.169 98.81L104.519 95.08C104.519 95.08 107.879 94.37 107.029 97.46Z" fill="#009DD9"/>
<path fill-rule="evenodd" clip-rule="evenodd" d="M117.269 121.83L112.359 124.71L113.639 127.8L118.639 125.01C118.639 125.01 120.459 122.1 117.269 121.83Z" fill="#009DD9"/>
<path fill-rule="evenodd" clip-rule="evenodd" d="M102.579 101.18L100.189 101.07L92.8686 107.26L102.639 103.82L102.579 101.18Z" fill="#F15822"/>
<path fill-rule="evenodd" clip-rule="evenodd" d="M96.8486 94.88L94.4586 94.77L87.1386 100.95L96.8986 97.51L96.8486 94.88Z" fill="#F15822"/>
<path fill-rule="evenodd" clip-rule="evenodd" d="M90.3486 89.05L87.9586 88.94L80.6386 95.13L90.3986 91.68L90.3486 89.05Z" fill="#F15822"/>
<path fill-rule="evenodd" clip-rule="evenodd" d="M113.189 122.39L110.799 122.29L103.469 128.47L113.239 125.03L113.189 122.39Z" fill="#F15822"/>
<path fill-rule="evenodd" clip-rule="evenodd" d="M110.319 114.37L107.929 114.26L100.609 120.44L110.369 117L110.319 114.37Z" fill="#F15822"/>
<path fill-rule="evenodd" clip-rule="evenodd" d="M115.579 130.8L113.459 130.7L106.979 136.18L115.629 133.13L115.579 130.8Z" fill="#F15822"/>
<path fill-rule="evenodd" clip-rule="evenodd" d="M73.14 29.3013C106.2 2.79133 129.02 1.66134 141.51 5.30134C154.36 9.04134 160.8 22.3013 155.51 44.3713C151.27 28.2913 143.11 18.2613 131.53 15.4613C116.53 11.8713 99.97 18.2413 73.14 29.3013Z" fill="#CBCACA"/>
<path fill-rule="evenodd" clip-rule="evenodd" d="M70 32.6613C116.42 -15.0387 191.29 -12.3587 154.53 53.0813C174.83 -21.4587 103.24 4.33132 70 32.6613Z" fill="#821517"/>
<path fill-rule="evenodd" clip-rule="evenodd" d="M16.9086 64L22.0486 65C12.3986 83.37 12.4186 94.16 17.2586 102.49C22.5886 111.65 36.7386 116.76 64.2586 107.42C40.0586 120.03 19.3486 116.89 12.0586 105.8C7.28857 98.57 4.44858 90 16.9086 64Z" fill="#821517"/>
<path fill-rule="evenodd" clip-rule="evenodd" d="M92.9186 99.6201L96.6186 102.62C69.8386 120 44.6186 122.68 20.1786 116.09C48.9086 120 74.8286 114.56 92.9186 99.6201Z" fill="#009DD9"/>
<path fill-rule="evenodd" clip-rule="evenodd" d="M103.719 120.12L105.509 123.12C78.7686 137.46 59.5086 133.12 40.9186 127.29C63.3586 132.7 84.4986 131.59 103.719 120.12Z" fill="#009DD9"/>
<path fill-rule="evenodd" clip-rule="evenodd" d="M113.089 143L116.919 139.74L114.469 103.89L102.469 111.35C102.469 111.35 107.259 113.56 113.089 143Z" fill="#FBAA19"/>
<path fill-rule="evenodd" clip-rule="evenodd" d="M78.9786 85.54L83.6886 83.77L113.859 103.29L101.499 110.2C101.499 110.2 101.879 104.9 78.9786 85.54Z" fill="#FED435"/>
<path fill-rule="evenodd" clip-rule="evenodd" d="M130.559 94C135.069 101.55 96.7486 116.72 91.7586 119.42L90.4086 131.35C89.5586 132.55 88.7586 132.2 87.9986 130.72C86.8886 122.02 86.1486 118.35 78.1586 113.54C76.4186 110.88 80.4786 111.1 82.0286 111.98L89.0286 115.98C93.7386 113.1 126.699 87.56 130.559 94Z" fill="#F15822"/>
<path fill-rule="evenodd" clip-rule="evenodd" d="M85.4686 120.56L130.539 94.23C130.508 94.1506 130.471 94.0737 130.429 94C126.569 87.52 93.6086 113.06 88.9286 116L82.0386 112C80.3886 111.07 76.2586 110.81 78.0386 113.51C81.9586 115.91 84.1386 118 85.4686 120.56Z" fill="#F8951D"/>
<path fill-rule="evenodd" clip-rule="evenodd" d="M89.1986 117.71L86.8186 117.6L79.4886 123.79L89.2586 120.34L89.1986 117.71Z" fill="#DB1E25"/>
</svg>
