<svg width="220" height="143" viewBox="0 0 220 143" fill="none" xmlns="http://www.w3.org/2000/svg">
<path d="M8.645 60L3.192 53.958V60H1.463V46.757H3.192V52.894L8.664 46.757H10.849L4.845 53.388L10.906 60H8.645ZM20.893 53.179C21.3744 53.255 21.8114 53.4513 22.204 53.768C22.6094 54.0847 22.926 54.4773 23.154 54.946C23.3947 55.4147 23.515 55.915 23.515 56.447C23.515 57.1183 23.344 57.7263 23.002 58.271C22.66 58.803 22.1597 59.2273 21.501 59.544C20.855 59.848 20.0887 60 19.202 60H14.262V46.757H19.012C19.9114 46.757 20.6777 46.909 21.311 47.213C21.9444 47.5043 22.4194 47.9033 22.736 48.41C23.0527 48.9167 23.211 49.4867 23.211 50.12C23.211 50.9053 22.9957 51.5577 22.565 52.077C22.147 52.5837 21.5897 52.951 20.893 53.179ZM15.991 52.476H18.898C19.7087 52.476 20.3357 52.286 20.779 51.906C21.2224 51.526 21.444 51.0003 21.444 50.329C21.444 49.6577 21.2224 49.132 20.779 48.752C20.3357 48.372 19.696 48.182 18.86 48.182H15.991V52.476ZM19.05 58.575C19.9114 58.575 20.5827 58.3723 21.064 57.967C21.5454 57.5617 21.786 56.998 21.786 56.276C21.786 55.5413 21.5327 54.965 21.026 54.547C20.5194 54.1163 19.8417 53.901 18.993 53.901H15.991V58.575H19.05ZM35.5588 46.757V60H33.8298V46.757H35.5588ZM53.3636 46.852V60H51.6346V50.196L47.2646 60H46.0486L41.6596 50.177V60H39.9306V46.852H41.7926L46.6566 57.72L51.5206 46.852H53.3636ZM71.1538 46.852V60H69.4248V50.196L65.0548 60H63.8388L59.4498 50.177V60H57.7208V46.852H59.5828L64.4468 57.72L69.3108 46.852H71.1538ZM77.2401 46.757V60H75.5111V46.757H77.2401ZM91.6438 50.595C91.2765 49.8223 90.7445 49.227 90.0478 48.809C89.3512 48.3783 88.5405 48.163 87.6158 48.163C86.6912 48.163 85.8552 48.3783 85.1078 48.809C84.3732 49.227 83.7905 49.835 83.3598 50.633C82.9418 51.4183 82.7328 52.3303 82.7328 53.369C82.7328 54.4077 82.9418 55.3197 83.3598 56.105C83.7905 56.8903 84.3732 57.4983 85.1078 57.929C85.8552 58.347 86.6912 58.556 87.6158 58.556C88.9078 58.556 89.9718 58.1697 90.8078 57.397C91.6438 56.6243 92.1315 55.5793 92.2708 54.262H86.9888V52.856H94.1138V54.186C94.0125 55.2753 93.6705 56.276 93.0878 57.188C92.5052 58.0873 91.7388 58.803 90.7888 59.335C89.8388 59.8543 88.7812 60.114 87.6158 60.114C86.3872 60.114 85.2662 59.829 84.2528 59.259C83.2395 58.6763 82.4352 57.872 81.8398 56.846C81.2572 55.82 80.9658 54.661 80.9658 53.369C80.9658 52.077 81.2572 50.918 81.8398 49.892C82.4352 48.8533 83.2395 48.049 84.2528 47.479C85.2662 46.8963 86.3872 46.605 87.6158 46.605C89.0218 46.605 90.2632 46.9533 91.3398 47.65C92.4292 48.3467 93.2208 49.3283 93.7148 50.595H91.6438ZM104.798 60L101.644 54.585H99.5539V60H97.8249V46.757H102.1C103.101 46.757 103.943 46.928 104.627 47.27C105.324 47.612 105.843 48.0743 106.185 48.657C106.527 49.2397 106.698 49.9047 106.698 50.652C106.698 51.564 106.432 52.3683 105.9 53.065C105.381 53.7617 104.595 54.224 103.544 54.452L106.869 60H104.798ZM99.5539 53.198H102.1C103.037 53.198 103.74 52.97 104.209 52.514C104.678 52.0453 104.912 51.4247 104.912 50.652C104.912 49.8667 104.678 49.2587 104.209 48.828C103.753 48.3973 103.05 48.182 102.1 48.182H99.5539V53.198ZM118.637 57.055H112.861L111.797 60H109.973L114.761 46.833H116.756L121.525 60H119.701L118.637 57.055ZM118.143 55.649L115.749 48.961L113.355 55.649H118.143ZM133.188 46.757V48.163H129.578V60H127.849V48.163H124.22V46.757H133.188ZM138.471 46.757V60H136.742V46.757H138.471ZM148.846 60.133C147.618 60.133 146.497 59.848 145.483 59.278C144.47 58.6953 143.666 57.891 143.07 56.865C142.488 55.8263 142.196 54.661 142.196 53.369C142.196 52.077 142.488 50.918 143.07 49.892C143.666 48.8533 144.47 48.049 145.483 47.479C146.497 46.8963 147.618 46.605 148.846 46.605C150.088 46.605 151.215 46.8963 152.228 47.479C153.242 48.049 154.04 48.847 154.622 49.873C155.205 50.899 155.496 52.0643 155.496 53.369C155.496 54.6737 155.205 55.839 154.622 56.865C154.04 57.891 153.242 58.6953 152.228 59.278C151.215 59.848 150.088 60.133 148.846 60.133ZM148.846 58.632C149.771 58.632 150.601 58.4167 151.335 57.986C152.083 57.5553 152.665 56.941 153.083 56.143C153.514 55.345 153.729 54.4203 153.729 53.369C153.729 52.305 153.514 51.3803 153.083 50.595C152.665 49.797 152.089 49.1827 151.354 48.752C150.62 48.3213 149.784 48.106 148.846 48.106C147.909 48.106 147.073 48.3213 146.338 48.752C145.604 49.1827 145.021 49.797 144.59 50.595C144.172 51.3803 143.963 52.305 143.963 53.369C143.963 54.4203 144.172 55.345 144.59 56.143C145.021 56.941 145.604 57.5553 146.338 57.986C147.086 58.4167 147.922 58.632 148.846 58.632ZM169.616 60H167.887L160.933 49.455V60H159.204V46.738H160.933L167.887 57.264V46.738H169.616V60ZM182.208 46.757V60H180.479V46.757H182.208ZM196.991 60H195.262L188.308 49.455V60H186.579V46.738H188.308L195.262 57.264V46.738H196.991V60ZM200.718 53.369C200.718 52.077 201.009 50.918 201.592 49.892C202.174 48.8533 202.966 48.0427 203.967 47.46C204.98 46.8773 206.101 46.586 207.33 46.586C208.774 46.586 210.034 46.9343 211.111 47.631C212.187 48.3277 212.973 49.3157 213.467 50.595H211.396C211.028 49.797 210.496 49.1827 209.8 48.752C209.116 48.3213 208.292 48.106 207.33 48.106C206.405 48.106 205.575 48.3213 204.841 48.752C204.106 49.1827 203.53 49.797 203.112 50.595C202.694 51.3803 202.485 52.305 202.485 53.369C202.485 54.4203 202.694 55.345 203.112 56.143C203.53 56.9283 204.106 57.5363 204.841 57.967C205.575 58.3977 206.405 58.613 207.33 58.613C208.292 58.613 209.116 58.404 209.8 57.986C210.496 57.5553 211.028 56.941 211.396 56.143H213.467C212.973 57.4097 212.187 58.3913 211.111 59.088C210.034 59.772 208.774 60.114 207.33 60.114C206.101 60.114 204.98 59.829 203.967 59.259C202.966 58.6763 202.174 57.872 201.592 56.846C201.009 55.82 200.718 54.661 200.718 53.369ZM218.017 60.114C217.687 60.114 217.409 60 217.181 59.772C216.953 59.544 216.839 59.2653 216.839 58.936C216.839 58.6067 216.953 58.328 217.181 58.1C217.409 57.872 217.687 57.758 218.017 57.758C218.333 57.758 218.599 57.872 218.815 58.1C219.043 58.328 219.157 58.6067 219.157 58.936C219.157 59.2653 219.043 59.544 218.815 59.772C218.599 60 218.333 60.114 218.017 60.114Z" fill="white"/>
<path fill-rule="evenodd" clip-rule="evenodd" d="M100.059 92.43L95.3586 95.68L93.0886 93.21L97.7186 89.85C97.7186 89.85 101.159 89.42 100.059 92.43Z" fill="#009DD9"/>
<path fill-rule="evenodd" clip-rule="evenodd" d="M116.119 112.53L111.209 115.41L112.489 118.5L117.489 115.71C117.489 115.71 119.359 112.8 116.119 112.53Z" fill="#009DD9"/>
<path fill-rule="evenodd" clip-rule="evenodd" d="M107.029 97.46L102.639 101.08L100.169 98.81L104.519 95.08C104.519 95.08 107.879 94.37 107.029 97.46Z" fill="#009DD9"/>
<path fill-rule="evenodd" clip-rule="evenodd" d="M117.269 121.83L112.359 124.71L113.639 127.8L118.639 125.01C118.639 125.01 120.459 122.1 117.269 121.83Z" fill="#009DD9"/>
<path fill-rule="evenodd" clip-rule="evenodd" d="M102.579 101.18L100.189 101.07L92.8686 107.26L102.639 103.82L102.579 101.18Z" fill="#F15822"/>
<path fill-rule="evenodd" clip-rule="evenodd" d="M96.8486 94.88L94.4586 94.77L87.1386 100.95L96.8986 97.51L96.8486 94.88Z" fill="#F15822"/>
<path fill-rule="evenodd" clip-rule="evenodd" d="M90.3486 89.05L87.9586 88.94L80.6386 95.13L90.3986 91.68L90.3486 89.05Z" fill="#F15822"/>
<path fill-rule="evenodd" clip-rule="evenodd" d="M113.189 122.39L110.799 122.29L103.469 128.47L113.239 125.03L113.189 122.39Z" fill="#F15822"/>
<path fill-rule="evenodd" clip-rule="evenodd" d="M110.319 114.37L107.929 114.26L100.609 120.44L110.369 117L110.319 114.37Z" fill="#F15822"/>
<path fill-rule="evenodd" clip-rule="evenodd" d="M115.579 130.8L113.459 130.7L106.979 136.18L115.629 133.13L115.579 130.8Z" fill="#F15822"/>
<path fill-rule="evenodd" clip-rule="evenodd" d="M73.14 29.3013C106.2 2.79133 129.02 1.66134 141.51 5.30134C154.36 9.04134 160.8 22.3013 155.51 44.3713C151.27 28.2913 143.11 18.2613 131.53 15.4613C116.53 11.8713 99.97 18.2413 73.14 29.3013Z" fill="#CBCACA"/>
<path fill-rule="evenodd" clip-rule="evenodd" d="M70 32.6613C116.42 -15.0387 191.29 -12.3587 154.53 53.0813C174.83 -21.4587 103.24 4.33132 70 32.6613Z" fill="#821517"/>
<path fill-rule="evenodd" clip-rule="evenodd" d="M16.9086 64L22.0486 65C12.3986 83.37 12.4186 94.16 17.2586 102.49C22.5886 111.65 36.7386 116.76 64.2586 107.42C40.0586 120.03 19.3486 116.89 12.0586 105.8C7.28857 98.57 4.44858 90 16.9086 64Z" fill="#821517"/>
<path fill-rule="evenodd" clip-rule="evenodd" d="M92.9186 99.6201L96.6186 102.62C69.8386 120 44.6186 122.68 20.1786 116.09C48.9086 120 74.8286 114.56 92.9186 99.6201Z" fill="#009DD9"/>
<path fill-rule="evenodd" clip-rule="evenodd" d="M103.719 120.12L105.509 123.12C78.7686 137.46 59.5086 133.12 40.9186 127.29C63.3586 132.7 84.4986 131.59 103.719 120.12Z" fill="#009DD9"/>
<path fill-rule="evenodd" clip-rule="evenodd" d="M113.089 143L116.919 139.74L114.469 103.89L102.469 111.35C102.469 111.35 107.259 113.56 113.089 143Z" fill="#FBAA19"/>
<path fill-rule="evenodd" clip-rule="evenodd" d="M78.9786 85.54L83.6886 83.77L113.859 103.29L101.499 110.2C101.499 110.2 101.879 104.9 78.9786 85.54Z" fill="#FED435"/>
<path fill-rule="evenodd" clip-rule="evenodd" d="M130.559 94C135.069 101.55 96.7486 116.72 91.7586 119.42L90.4086 131.35C89.5586 132.55 88.7586 132.2 87.9986 130.72C86.8886 122.02 86.1486 118.35 78.1586 113.54C76.4186 110.88 80.4786 111.1 82.0286 111.98L89.0286 115.98C93.7386 113.1 126.699 87.56 130.559 94Z" fill="#F15822"/>
<path fill-rule="evenodd" clip-rule="evenodd" d="M85.4686 120.56L130.539 94.23C130.508 94.1506 130.471 94.0737 130.429 94C126.569 87.52 93.6086 113.06 88.9286 116L82.0386 112C80.3886 111.07 76.2586 110.81 78.0386 113.51C81.9586 115.91 84.1386 118 85.4686 120.56Z" fill="#F8951D"/>
<path fill-rule="evenodd" clip-rule="evenodd" d="M89.1986 117.71L86.8186 117.6L79.4886 123.79L89.2586 120.34L89.1986 117.71Z" fill="#DB1E25"/>
<path d="M34.78 71.636L32.056 76.844V80H30.964V76.844L28.228 71.636H29.44L31.504 75.872L33.568 71.636H34.78ZM39.3998 80.108C38.7838 80.108 38.2238 79.968 37.7198 79.688C37.2238 79.408 36.8318 79.012 36.5438 78.5C36.2638 77.98 36.1238 77.38 36.1238 76.7C36.1238 76.028 36.2678 75.436 36.5558 74.924C36.8518 74.404 37.2518 74.008 37.7558 73.736C38.2598 73.456 38.8238 73.316 39.4478 73.316C40.0718 73.316 40.6358 73.456 41.1398 73.736C41.6438 74.008 42.0398 74.4 42.3278 74.912C42.6238 75.424 42.7718 76.02 42.7718 76.7C42.7718 77.38 42.6198 77.98 42.3158 78.5C42.0198 79.012 41.6158 79.408 41.1038 79.688C40.5918 79.968 40.0238 80.108 39.3998 80.108ZM39.3998 79.148C39.7918 79.148 40.1598 79.056 40.5038 78.872C40.8478 78.688 41.1238 78.412 41.3318 78.044C41.5478 77.676 41.6558 77.228 41.6558 76.7C41.6558 76.172 41.5518 75.724 41.3438 75.356C41.1358 74.988 40.8638 74.716 40.5278 74.54C40.1918 74.356 39.8278 74.264 39.4358 74.264C39.0358 74.264 38.6678 74.356 38.3318 74.54C38.0038 74.716 37.7398 74.988 37.5398 75.356C37.3398 75.724 37.2398 76.172 37.2398 76.7C37.2398 77.236 37.3358 77.688 37.5278 78.056C37.7278 78.424 37.9918 78.7 38.3198 78.884C38.6478 79.06 39.0078 79.148 39.3998 79.148ZM50.6396 73.424V80H49.5476V79.028C49.3396 79.364 49.0476 79.628 48.6716 79.82C48.3036 80.004 47.8956 80.096 47.4476 80.096C46.9356 80.096 46.4756 79.992 46.0676 79.784C45.6596 79.568 45.3356 79.248 45.0956 78.824C44.8636 78.4 44.7476 77.884 44.7476 77.276V73.424H45.8276V77.132C45.8276 77.78 45.9916 78.28 46.3196 78.632C46.6476 78.976 47.0956 79.148 47.6636 79.148C48.2476 79.148 48.7076 78.968 49.0436 78.608C49.3796 78.248 49.5476 77.724 49.5476 77.036V73.424H50.6396ZM54.1754 74.492C54.3674 74.116 54.6394 73.824 54.9914 73.616C55.3514 73.408 55.7874 73.304 56.2994 73.304V74.432H56.0114C54.7874 74.432 54.1754 75.096 54.1754 76.424V80H53.0834V73.424H54.1754V74.492ZM67.5512 74.084C67.5512 74.78 67.3112 75.36 66.8312 75.824C66.3592 76.28 65.6352 76.508 64.6592 76.508H63.0512V80H61.9592V71.636H64.6592C65.6032 71.636 66.3192 71.864 66.8072 72.32C67.3032 72.776 67.5512 73.364 67.5512 74.084ZM64.6592 75.608C65.2672 75.608 65.7152 75.476 66.0032 75.212C66.2912 74.948 66.4352 74.572 66.4352 74.084C66.4352 73.052 65.8432 72.536 64.6592 72.536H63.0512V75.608H64.6592ZM69.1004 76.688C69.1004 76.016 69.2364 75.428 69.5084 74.924C69.7804 74.412 70.1524 74.016 70.6244 73.736C71.1044 73.456 71.6364 73.316 72.2204 73.316C72.7964 73.316 73.2964 73.44 73.7204 73.688C74.1444 73.936 74.4604 74.248 74.6684 74.624V73.424H75.7724V80H74.6684V78.776C74.4524 79.16 74.1284 79.48 73.6964 79.736C73.2724 79.984 72.7764 80.108 72.2084 80.108C71.6244 80.108 71.0964 79.964 70.6244 79.676C70.1524 79.388 69.7804 78.984 69.5084 78.464C69.2364 77.944 69.1004 77.352 69.1004 76.688ZM74.6684 76.7C74.6684 76.204 74.5684 75.772 74.3684 75.404C74.1684 75.036 73.8964 74.756 73.5524 74.564C73.2164 74.364 72.8444 74.264 72.4364 74.264C72.0284 74.264 71.6564 74.36 71.3204 74.552C70.9844 74.744 70.7164 75.024 70.5164 75.392C70.3164 75.76 70.2164 76.192 70.2164 76.688C70.2164 77.192 70.3164 77.632 70.5164 78.008C70.7164 78.376 70.9844 78.66 71.3204 78.86C71.6564 79.052 72.0284 79.148 72.4364 79.148C72.8444 79.148 73.2164 79.052 73.5524 78.86C73.8964 78.66 74.1684 78.376 74.3684 78.008C74.5684 77.632 74.6684 77.196 74.6684 76.7ZM79.5498 74.324V78.2C79.5498 78.52 79.6178 78.748 79.7538 78.884C79.8898 79.012 80.1258 79.076 80.4618 79.076H81.2658V80H80.2818C79.6738 80 79.2178 79.86 78.9138 79.58C78.6098 79.3 78.4578 78.84 78.4578 78.2V74.324H77.6058V73.424H78.4578V71.768H79.5498V73.424H81.2658V74.324H79.5498ZM86.4528 73.304C86.9488 73.304 87.3968 73.412 87.7968 73.628C88.1968 73.836 88.5088 74.152 88.7328 74.576C88.9648 75 89.0808 75.516 89.0808 76.124V80H88.0008V76.28C88.0008 75.624 87.8368 75.124 87.5088 74.78C87.1808 74.428 86.7328 74.252 86.1648 74.252C85.5888 74.252 85.1288 74.432 84.7848 74.792C84.4488 75.152 84.2808 75.676 84.2808 76.364V80H83.1888V71.12H84.2808V74.36C84.4968 74.024 84.7928 73.764 85.1688 73.58C85.5528 73.396 85.9808 73.304 86.4528 73.304ZM100.225 73.424L98.1726 80H97.0446L95.4606 74.78L93.8766 80H92.7486L90.6846 73.424H91.8006L93.3126 78.944L94.9446 73.424H96.0606L97.6566 78.956L99.1446 73.424H100.225ZM101.5 76.688C101.5 76.016 101.636 75.428 101.908 74.924C102.18 74.412 102.552 74.016 103.024 73.736C103.504 73.456 104.036 73.316 104.62 73.316C105.196 73.316 105.696 73.44 106.12 73.688C106.544 73.936 106.86 74.248 107.068 74.624V73.424H108.172V80H107.068V78.776C106.852 79.16 106.528 79.48 106.096 79.736C105.672 79.984 105.176 80.108 104.608 80.108C104.024 80.108 103.496 79.964 103.024 79.676C102.552 79.388 102.18 78.984 101.908 78.464C101.636 77.944 101.5 77.352 101.5 76.688ZM107.068 76.7C107.068 76.204 106.968 75.772 106.768 75.404C106.568 75.036 106.296 74.756 105.952 74.564C105.616 74.364 105.244 74.264 104.836 74.264C104.428 74.264 104.056 74.36 103.72 74.552C103.384 74.744 103.116 75.024 102.916 75.392C102.716 75.76 102.616 76.192 102.616 76.688C102.616 77.192 102.716 77.632 102.916 78.008C103.116 78.376 103.384 78.66 103.72 78.86C104.056 79.052 104.428 79.148 104.836 79.148C105.244 79.148 105.616 79.052 105.952 78.86C106.296 78.66 106.568 78.376 106.768 78.008C106.968 77.632 107.068 77.196 107.068 76.7ZM116.282 73.424L112.322 83.096H111.194L112.49 79.928L109.838 73.424H111.05L113.114 78.752L115.154 73.424H116.282ZM126.927 71.636V72.524H124.647V80H123.555V72.524H121.263V71.636H126.927ZM131.739 80.108C131.123 80.108 130.563 79.968 130.059 79.688C129.563 79.408 129.171 79.012 128.883 78.5C128.603 77.98 128.463 77.38 128.463 76.7C128.463 76.028 128.607 75.436 128.895 74.924C129.191 74.404 129.591 74.008 130.095 73.736C130.599 73.456 131.163 73.316 131.787 73.316C132.411 73.316 132.975 73.456 133.479 73.736C133.983 74.008 134.379 74.4 134.667 74.912C134.963 75.424 135.111 76.02 135.111 76.7C135.111 77.38 134.959 77.98 134.655 78.5C134.359 79.012 133.955 79.408 133.443 79.688C132.931 79.968 132.363 80.108 131.739 80.108ZM131.739 79.148C132.131 79.148 132.499 79.056 132.843 78.872C133.187 78.688 133.463 78.412 133.671 78.044C133.887 77.676 133.995 77.228 133.995 76.7C133.995 76.172 133.891 75.724 133.683 75.356C133.475 74.988 133.203 74.716 132.867 74.54C132.531 74.356 132.167 74.264 131.775 74.264C131.375 74.264 131.007 74.356 130.671 74.54C130.343 74.716 130.079 74.988 129.879 75.356C129.679 75.724 129.579 76.172 129.579 76.7C129.579 77.236 129.675 77.688 129.867 78.056C130.067 78.424 130.331 78.7 130.659 78.884C130.987 79.06 131.347 79.148 131.739 79.148ZM140.538 75.812C140.538 74.996 140.722 74.264 141.09 73.616C141.458 72.96 141.958 72.448 142.59 72.08C143.23 71.712 143.938 71.528 144.714 71.528C145.626 71.528 146.422 71.748 147.102 72.188C147.782 72.628 148.278 73.252 148.59 74.06H147.282C147.05 73.556 146.714 73.168 146.274 72.896C145.842 72.624 145.322 72.488 144.714 72.488C144.13 72.488 143.606 72.624 143.142 72.896C142.678 73.168 142.314 73.556 142.05 74.06C141.786 74.556 141.654 75.14 141.654 75.812C141.654 76.476 141.786 77.06 142.05 77.564C142.314 78.06 142.678 78.444 143.142 78.716C143.606 78.988 144.13 79.124 144.714 79.124C145.322 79.124 145.842 78.992 146.274 78.728C146.714 78.456 147.05 78.068 147.282 77.564H148.59C148.278 78.364 147.782 78.984 147.102 79.424C146.422 79.856 145.626 80.072 144.714 80.072C143.938 80.072 143.23 79.892 142.59 79.532C141.958 79.164 141.458 78.656 141.09 78.008C140.722 77.36 140.538 76.628 140.538 75.812ZM150.407 76.688C150.407 76.016 150.543 75.428 150.815 74.924C151.087 74.412 151.459 74.016 151.931 73.736C152.411 73.456 152.943 73.316 153.527 73.316C154.103 73.316 154.603 73.44 155.027 73.688C155.451 73.936 155.767 74.248 155.975 74.624V73.424H157.079V80H155.975V78.776C155.759 79.16 155.435 79.48 155.003 79.736C154.579 79.984 154.083 80.108 153.515 80.108C152.931 80.108 152.403 79.964 151.931 79.676C151.459 79.388 151.087 78.984 150.815 78.464C150.543 77.944 150.407 77.352 150.407 76.688ZM155.975 76.7C155.975 76.204 155.875 75.772 155.675 75.404C155.475 75.036 155.203 74.756 154.859 74.564C154.523 74.364 154.151 74.264 153.743 74.264C153.335 74.264 152.963 74.36 152.627 74.552C152.291 74.744 152.023 75.024 151.823 75.392C151.623 75.76 151.523 76.192 151.523 76.688C151.523 77.192 151.623 77.632 151.823 78.008C152.023 78.376 152.291 78.66 152.627 78.86C152.963 79.052 153.335 79.148 153.743 79.148C154.151 79.148 154.523 79.052 154.859 78.86C155.203 78.66 155.475 78.376 155.675 78.008C155.875 77.632 155.975 77.196 155.975 76.7ZM162.729 73.304C163.529 73.304 164.177 73.548 164.673 74.036C165.169 74.516 165.417 75.212 165.417 76.124V80H164.337V76.28C164.337 75.624 164.173 75.124 163.845 74.78C163.517 74.428 163.069 74.252 162.501 74.252C161.925 74.252 161.465 74.432 161.121 74.792C160.785 75.152 160.617 75.676 160.617 76.364V80H159.525V73.424H160.617V74.36C160.833 74.024 161.125 73.764 161.493 73.58C161.869 73.396 162.281 73.304 162.729 73.304ZM167.393 76.688C167.393 76.016 167.529 75.428 167.801 74.924C168.073 74.412 168.445 74.016 168.917 73.736C169.397 73.456 169.929 73.316 170.513 73.316C171.089 73.316 171.589 73.44 172.013 73.688C172.437 73.936 172.753 74.248 172.961 74.624V73.424H174.065V80H172.961V78.776C172.745 79.16 172.421 79.48 171.989 79.736C171.565 79.984 171.069 80.108 170.501 80.108C169.917 80.108 169.389 79.964 168.917 79.676C168.445 79.388 168.073 78.984 167.801 78.464C167.529 77.944 167.393 77.352 167.393 76.688ZM172.961 76.7C172.961 76.204 172.861 75.772 172.661 75.404C172.461 75.036 172.189 74.756 171.845 74.564C171.509 74.364 171.137 74.264 170.729 74.264C170.321 74.264 169.949 74.36 169.613 74.552C169.277 74.744 169.009 75.024 168.809 75.392C168.609 75.76 168.509 76.192 168.509 76.688C168.509 77.192 168.609 77.632 168.809 78.008C169.009 78.376 169.277 78.66 169.613 78.86C169.949 79.052 170.321 79.148 170.729 79.148C171.137 79.148 171.509 79.052 171.845 78.86C172.189 78.66 172.461 78.376 172.661 78.008C172.861 77.632 172.961 77.196 172.961 76.7ZM176.102 76.688C176.102 76.016 176.238 75.428 176.51 74.924C176.782 74.412 177.154 74.016 177.626 73.736C178.106 73.456 178.642 73.316 179.234 73.316C179.746 73.316 180.222 73.436 180.662 73.676C181.102 73.908 181.438 74.216 181.67 74.6V71.12H182.774V80H181.67V78.764C181.454 79.156 181.134 79.48 180.71 79.736C180.286 79.984 179.79 80.108 179.222 80.108C178.638 80.108 178.106 79.964 177.626 79.676C177.154 79.388 176.782 78.984 176.51 78.464C176.238 77.944 176.102 77.352 176.102 76.688ZM181.67 76.7C181.67 76.204 181.57 75.772 181.37 75.404C181.17 75.036 180.898 74.756 180.554 74.564C180.218 74.364 179.846 74.264 179.438 74.264C179.03 74.264 178.658 74.36 178.322 74.552C177.986 74.744 177.718 75.024 177.518 75.392C177.318 75.76 177.218 76.192 177.218 76.688C177.218 77.192 177.318 77.632 177.518 78.008C177.718 78.376 177.986 78.66 178.322 78.86C178.658 79.052 179.03 79.148 179.438 79.148C179.846 79.148 180.218 79.052 180.554 78.86C180.898 78.66 181.17 78.376 181.37 78.008C181.57 77.632 181.67 77.196 181.67 76.7ZM184.811 76.688C184.811 76.016 184.947 75.428 185.219 74.924C185.491 74.412 185.863 74.016 186.335 73.736C186.815 73.456 187.347 73.316 187.931 73.316C188.507 73.316 189.007 73.44 189.431 73.688C189.855 73.936 190.171 74.248 190.379 74.624V73.424H191.483V80H190.379V78.776C190.163 79.16 189.839 79.48 189.407 79.736C188.983 79.984 188.487 80.108 187.919 80.108C187.335 80.108 186.807 79.964 186.335 79.676C185.863 79.388 185.491 78.984 185.219 78.464C184.947 77.944 184.811 77.352 184.811 76.688ZM190.379 76.7C190.379 76.204 190.279 75.772 190.079 75.404C189.879 75.036 189.607 74.756 189.263 74.564C188.927 74.364 188.555 74.264 188.147 74.264C187.739 74.264 187.367 74.36 187.031 74.552C186.695 74.744 186.427 75.024 186.227 75.392C186.027 75.76 185.927 76.192 185.927 76.688C185.927 77.192 186.027 77.632 186.227 78.008C186.427 78.376 186.695 78.66 187.031 78.86C187.367 79.052 187.739 79.148 188.147 79.148C188.555 79.148 188.927 79.052 189.263 78.86C189.607 78.66 189.879 78.376 190.079 78.008C190.279 77.632 190.379 77.196 190.379 76.7Z" fill="white"/>
<path fill-rule="evenodd" clip-rule="evenodd" d="M100.059 92.43L95.3586 95.68L93.0886 93.21L97.7186 89.85C97.7186 89.85 101.159 89.42 100.059 92.43Z" fill="#009DD9"/>
<path fill-rule="evenodd" clip-rule="evenodd" d="M116.119 112.53L111.209 115.41L112.489 118.5L117.489 115.71C117.489 115.71 119.359 112.8 116.119 112.53Z" fill="#009DD9"/>
<path fill-rule="evenodd" clip-rule="evenodd" d="M107.029 97.46L102.639 101.08L100.169 98.81L104.519 95.08C104.519 95.08 107.879 94.37 107.029 97.46Z" fill="#009DD9"/>
<path fill-rule="evenodd" clip-rule="evenodd" d="M117.269 121.83L112.359 124.71L113.639 127.8L118.639 125.01C118.639 125.01 120.459 122.1 117.269 121.83Z" fill="#009DD9"/>
<path fill-rule="evenodd" clip-rule="evenodd" d="M102.579 101.18L100.189 101.07L92.8686 107.26L102.639 103.82L102.579 101.18Z" fill="#F15822"/>
<path fill-rule="evenodd" clip-rule="evenodd" d="M96.8486 94.88L94.4586 94.77L87.1386 100.95L96.8986 97.51L96.8486 94.88Z" fill="#F15822"/>
<path fill-rule="evenodd" clip-rule="evenodd" d="M90.3486 89.05L87.9586 88.94L80.6386 95.13L90.3986 91.68L90.3486 89.05Z" fill="#F15822"/>
<path fill-rule="evenodd" clip-rule="evenodd" d="M113.189 122.39L110.799 122.29L103.469 128.47L113.239 125.03L113.189 122.39Z" fill="#F15822"/>
<path fill-rule="evenodd" clip-rule="evenodd" d="M110.319 114.37L107.929 114.26L100.609 120.44L110.369 117L110.319 114.37Z" fill="#F15822"/>
<path fill-rule="evenodd" clip-rule="evenodd" d="M115.579 130.8L113.459 130.7L106.979 136.18L115.629 133.13L115.579 130.8Z" fill="#F15822"/>
<path fill-rule="evenodd" clip-rule="evenodd" d="M73.14 29.3013C106.2 2.79133 129.02 1.66134 141.51 5.30134C154.36 9.04134 160.8 22.3013 155.51 44.3713C151.27 28.2913 143.11 18.2613 131.53 15.4613C116.53 11.8713 99.97 18.2413 73.14 29.3013Z" fill="#CBCACA"/>
<path fill-rule="evenodd" clip-rule="evenodd" d="M70 32.6613C116.42 -15.0387 191.29 -12.3587 154.53 53.0813C174.83 -21.4587 103.24 4.33132 70 32.6613Z" fill="#821517"/>
<path fill-rule="evenodd" clip-rule="evenodd" d="M16.9086 64L22.0486 65C12.3986 83.37 12.4186 94.16 17.2586 102.49C22.5886 111.65 36.7386 116.76 64.2586 107.42C40.0586 120.03 19.3486 116.89 12.0586 105.8C7.28857 98.57 4.44858 90 16.9086 64Z" fill="#821517"/>
<path fill-rule="evenodd" clip-rule="evenodd" d="M92.9186 99.6201L96.6186 102.62C69.8386 120 44.6186 122.68 20.1786 116.09C48.9086 120 74.8286 114.56 92.9186 99.6201Z" fill="#009DD9"/>
<path fill-rule="evenodd" clip-rule="evenodd" d="M103.719 120.12L105.509 123.12C78.7686 137.46 59.5086 133.12 40.9186 127.29C63.3586 132.7 84.4986 131.59 103.719 120.12Z" fill="#009DD9"/>
<path fill-rule="evenodd" clip-rule="evenodd" d="M113.089 143L116.919 139.74L114.469 103.89L102.469 111.35C102.469 111.35 107.259 113.56 113.089 143Z" fill="#FBAA19"/>
<path fill-rule="evenodd" clip-rule="evenodd" d="M78.9786 85.54L83.6886 83.77L113.859 103.29L101.499 110.2C101.499 110.2 101.879 104.9 78.9786 85.54Z" fill="#FED435"/>
<path fill-rule="evenodd" clip-rule="evenodd" d="M130.559 94C135.069 101.55 96.7486 116.72 91.7586 119.42L90.4086 131.35C89.5586 132.55 88.7586 132.2 87.9986 130.72C86.8886 122.02 86.1486 118.35 78.1586 113.54C76.4186 110.88 80.4786 111.1 82.0286 111.98L89.0286 115.98C93.7386 113.1 126.699 87.56 130.559 94Z" fill="#F15822"/>
<path fill-rule="evenodd" clip-rule="evenodd" d="M85.4686 120.56L130.539 94.23C130.508 94.1506 130.471 94.0737 130.429 94C126.569 87.52 93.6086 113.06 88.9286 116L82.0386 112C80.3886 111.07 76.2586 110.81 78.0386 113.51C81.9586 115.91 84.1386 118 85.4686 120.56Z" fill="#F8951D"/>
<path fill-rule="evenodd" clip-rule="evenodd" d="M89.1986 117.71L86.8186 117.6L79.4886 123.79L89.2586 120.34L89.1986 117.71Z" fill="#DB1E25"/>
</svg>
