<svg width="200" height="137" viewBox="0 0 200 137" fill="none" xmlns="http://www.w3.org/2000/svg">
<path d="M8.702 58L3.591 52.091V58H1.425V44.795H3.591V50.818L8.721 44.795H11.438L5.7 51.407L11.533 58H8.702ZM20.5164 51.217C21.2258 51.3437 21.8274 51.7173 22.3214 52.338C22.8154 52.9587 23.0624 53.6617 23.0624 54.447C23.0624 55.1183 22.8851 55.7263 22.5304 56.271C22.1884 56.803 21.6881 57.2273 21.0294 57.544C20.3708 57.848 19.6044 58 18.7304 58H13.4484V44.795H18.4834C19.3828 44.795 20.1554 44.947 20.8014 45.251C21.4474 45.555 21.9351 45.9667 22.2644 46.486C22.5938 46.9927 22.7584 47.5627 22.7584 48.196C22.7584 48.956 22.5558 49.5893 22.1504 50.096C21.7451 50.6027 21.2004 50.9763 20.5164 51.217ZM15.6144 50.343H18.2934C19.0028 50.343 19.5538 50.1847 19.9464 49.868C20.3518 49.5387 20.5544 49.07 20.5544 48.462C20.5544 47.8667 20.3518 47.4043 19.9464 47.075C19.5538 46.733 19.0028 46.562 18.2934 46.562H15.6144V50.343ZM18.5404 56.233C19.2751 56.233 19.8514 56.0557 20.2694 55.701C20.6874 55.3463 20.8964 54.8523 20.8964 54.219C20.8964 53.573 20.6748 53.06 20.2314 52.68C19.7881 52.3 19.1991 52.11 18.4644 52.11H15.6144V56.233H18.5404ZM32.5178 44.795V58H30.3518V44.795H32.5178ZM49.2695 44.795V58H47.1035V48.956L43.0755 58H41.5745L37.5275 48.956V58H35.3615V44.795H37.6985L42.3345 55.15L46.9515 44.795H49.2695ZM66.0244 44.795V58H63.8584V48.956L59.8304 58H58.3294L54.2824 48.956V58H52.1164V44.795H54.4534L59.0894 55.15L63.7064 44.795H66.0244ZM71.0373 44.795V58H68.8713V44.795H71.0373ZM83.4381 48.595C83.0961 47.9363 82.6211 47.4423 82.0131 47.113C81.4051 46.771 80.7021 46.6 79.9041 46.6C79.0301 46.6 78.2511 46.7963 77.5671 47.189C76.8831 47.5817 76.3447 48.139 75.9521 48.861C75.5721 49.583 75.3821 50.419 75.3821 51.369C75.3821 52.319 75.5721 53.1613 75.9521 53.896C76.3447 54.618 76.8831 55.1753 77.5671 55.568C78.2511 55.9607 79.0301 56.157 79.9041 56.157C81.0821 56.157 82.0384 55.8277 82.7731 55.169C83.5077 54.5103 83.9574 53.6173 84.1221 52.49H79.1631V50.761H86.4401V52.452C86.3007 53.478 85.9334 54.4217 85.3381 55.283C84.7554 56.1443 83.9891 56.8347 83.0391 57.354C82.1017 57.8607 81.0567 58.114 79.9041 58.114C78.6627 58.114 77.5291 57.829 76.5031 57.259C75.4771 56.6763 74.6601 55.872 74.0521 54.846C73.4567 53.82 73.1591 52.661 73.1591 51.369C73.1591 50.077 73.4567 48.918 74.0521 47.892C74.6601 46.866 75.4771 46.068 76.5031 45.498C77.5417 44.9153 78.6754 44.624 79.9041 44.624C81.3101 44.624 82.5577 44.9723 83.6471 45.669C84.7491 46.353 85.5471 47.3283 86.0411 48.595H83.4381ZM95.4354 58L92.3954 52.718H90.7424V58H88.5764V44.795H93.1364C94.1497 44.795 95.0047 44.9723 95.7014 45.327C96.4107 45.6817 96.9364 46.1567 97.2784 46.752C97.633 47.3473 97.8104 48.0123 97.8104 48.747C97.8104 49.6083 97.557 50.3937 97.0504 51.103C96.5564 51.7997 95.79 52.2747 94.7514 52.528L98.0194 58H95.4354ZM90.7424 50.989H93.1364C93.947 50.989 94.555 50.7863 94.9604 50.381C95.3784 49.9757 95.5874 49.431 95.5874 48.747C95.5874 48.063 95.3847 47.531 94.9794 47.151C94.574 46.7583 93.9597 46.562 93.1364 46.562H90.7424V50.989ZM108.542 55.302H103.013L102.063 58H99.8023L104.533 44.776H107.041L111.772 58H109.492L108.542 55.302ZM107.934 53.535L105.787 47.398L103.621 53.535H107.934ZM122.36 44.795V46.562H118.845V58H116.679V46.562H113.145V44.795H122.36ZM126.72 44.795V58H124.554V44.795H126.72ZM135.587 58.133C134.358 58.133 133.224 57.848 132.186 57.278C131.16 56.6953 130.343 55.891 129.735 54.865C129.139 53.8263 128.842 52.661 128.842 51.369C128.842 50.077 129.139 48.918 129.735 47.892C130.343 46.866 131.16 46.068 132.186 45.498C133.224 44.9153 134.358 44.624 135.587 44.624C136.828 44.624 137.962 44.9153 138.988 45.498C140.026 46.068 140.843 46.866 141.439 47.892C142.034 48.918 142.332 50.077 142.332 51.369C142.332 52.661 142.034 53.8263 141.439 54.865C140.843 55.891 140.026 56.6953 138.988 57.278C137.962 57.848 136.828 58.133 135.587 58.133ZM135.587 56.252C136.461 56.252 137.24 56.0557 137.924 55.663C138.608 55.2577 139.14 54.6877 139.52 53.953C139.912 53.2057 140.109 52.3443 140.109 51.369C140.109 50.3937 139.912 49.5387 139.52 48.804C139.14 48.0693 138.608 47.5057 137.924 47.113C137.24 46.7203 136.461 46.524 135.587 46.524C134.713 46.524 133.934 46.7203 133.25 47.113C132.566 47.5057 132.027 48.0693 131.635 48.804C131.255 49.5387 131.065 50.3937 131.065 51.369C131.065 52.3443 131.255 53.2057 131.635 53.953C132.027 54.6877 132.566 55.2577 133.25 55.663C133.934 56.0557 134.713 56.252 135.587 56.252ZM155.312 58H153.146L146.629 48.139V58H144.463V44.776H146.629L153.146 54.618V44.776H155.312V58ZM165.258 44.795V58H163.092V44.795H165.258ZM178.951 58H176.785L170.268 48.139V58H168.102V44.776H170.268L176.785 54.618V44.776H178.951V58ZM181.073 51.369C181.073 50.077 181.371 48.918 181.966 47.892C182.574 46.866 183.391 46.068 184.417 45.498C185.456 44.9153 186.589 44.624 187.818 44.624C189.224 44.624 190.472 44.9723 191.561 45.669C192.663 46.353 193.461 47.3283 193.955 48.595H191.352C191.01 47.8983 190.535 47.379 189.927 47.037C189.319 46.695 188.616 46.524 187.818 46.524C186.944 46.524 186.165 46.7203 185.481 47.113C184.797 47.5057 184.259 48.0693 183.866 48.804C183.486 49.5387 183.296 50.3937 183.296 51.369C183.296 52.3443 183.486 53.1993 183.866 53.934C184.259 54.6687 184.797 55.2387 185.481 55.644C186.165 56.0367 186.944 56.233 187.818 56.233C188.616 56.233 189.319 56.062 189.927 55.72C190.535 55.378 191.01 54.8587 191.352 54.162H193.955C193.461 55.4287 192.663 56.404 191.561 57.088C190.472 57.772 189.224 58.114 187.818 58.114C186.577 58.114 185.443 57.829 184.417 57.259C183.391 56.6763 182.574 55.872 181.966 54.846C181.371 53.82 181.073 52.661 181.073 51.369ZM197.364 58.133C196.972 58.133 196.642 58 196.376 57.734C196.11 57.468 195.977 57.1387 195.977 56.746C195.977 56.3533 196.11 56.024 196.376 55.758C196.642 55.492 196.972 55.359 197.364 55.359C197.744 55.359 198.067 55.492 198.333 55.758C198.599 56.024 198.732 56.3533 198.732 56.746C198.732 57.1387 198.599 57.468 198.333 57.734C198.067 58 197.744 58.133 197.364 58.133Z" fill="white"/>
<path fill-rule="evenodd" clip-rule="evenodd" d="M109.059 86.43L104.359 89.68L102.089 87.21L106.719 83.85C106.719 83.85 110.159 83.42 109.059 86.43Z" fill="#009DD9"/>
<path fill-rule="evenodd" clip-rule="evenodd" d="M125.119 106.53L120.209 109.41L121.489 112.5L126.489 109.71C126.489 109.71 128.359 106.8 125.119 106.53Z" fill="#009DD9"/>
<path fill-rule="evenodd" clip-rule="evenodd" d="M116.029 91.46L111.639 95.08L109.169 92.81L113.519 89.08C113.519 89.08 116.879 88.37 116.029 91.46Z" fill="#009DD9"/>
<path fill-rule="evenodd" clip-rule="evenodd" d="M126.269 115.83L121.359 118.71L122.639 121.8L127.639 119.01C127.639 119.01 129.459 116.1 126.269 115.83Z" fill="#009DD9"/>
<path fill-rule="evenodd" clip-rule="evenodd" d="M111.579 95.18L109.189 95.07L101.869 101.26L111.639 97.82L111.579 95.18Z" fill="#F15822"/>
<path fill-rule="evenodd" clip-rule="evenodd" d="M105.849 88.88L103.459 88.77L96.1386 94.95L105.899 91.51L105.849 88.88Z" fill="#F15822"/>
<path fill-rule="evenodd" clip-rule="evenodd" d="M99.3486 83.05L96.9586 82.94L89.6386 89.13L99.3986 85.68L99.3486 83.05Z" fill="#F15822"/>
<path fill-rule="evenodd" clip-rule="evenodd" d="M119.319 108.37L116.929 108.26L109.609 114.44L119.369 111L119.319 108.37Z" fill="#F15822"/>
<path fill-rule="evenodd" clip-rule="evenodd" d="M76.14 29.3013C109.2 2.79133 132.02 1.66134 144.51 5.30134C157.36 9.04134 163.8 22.3013 158.51 44.3713C154.27 28.2913 146.11 18.2613 134.53 15.4613C119.53 11.8713 102.97 18.2413 76.14 29.3013Z" fill="#CBCACA"/>
<path fill-rule="evenodd" clip-rule="evenodd" d="M73 32.6613C119.42 -15.0387 194.29 -12.3587 157.53 53.0813C177.83 -21.4587 106.24 4.33132 73 32.6613Z" fill="#821517"/>
<path fill-rule="evenodd" clip-rule="evenodd" d="M25.9086 58L31.0486 59C21.3986 77.37 21.4186 88.16 26.2586 96.49C31.5886 105.65 45.7386 110.76 73.2586 101.42C49.0586 114.03 28.3486 110.89 21.0586 99.8C16.2886 92.57 13.4486 84 25.9086 58Z" fill="#821517"/>
<path fill-rule="evenodd" clip-rule="evenodd" d="M101.919 93.6201L105.619 96.6201C78.8386 114 53.6186 116.68 29.1786 110.09C57.9086 114 83.8286 108.56 101.919 93.6201Z" fill="#009DD9"/>
<path fill-rule="evenodd" clip-rule="evenodd" d="M112.719 114.12L114.509 117.12C87.7686 131.46 68.5086 127.12 49.9186 121.29C72.3586 126.7 93.4986 125.59 112.719 114.12Z" fill="#009DD9"/>
<path fill-rule="evenodd" clip-rule="evenodd" d="M122.089 137L125.919 133.74L123.469 97.89L111.469 105.35C111.469 105.35 116.259 107.56 122.089 137Z" fill="#FBAA19"/>
<path fill-rule="evenodd" clip-rule="evenodd" d="M87.9786 79.54L92.6886 77.77L122.859 97.29L110.499 104.2C110.499 104.2 110.879 98.9 87.9786 79.54Z" fill="#FED435"/>
<path fill-rule="evenodd" clip-rule="evenodd" d="M139.559 88C144.069 95.55 105.749 110.72 100.759 113.42L99.4086 125.35C98.5586 126.55 97.7586 126.2 96.9986 124.72C95.8886 116.02 95.1486 112.35 87.1586 107.54C85.4186 104.88 89.4786 105.1 91.0286 105.98L98.0286 109.98C102.739 107.1 135.699 81.56 139.559 88Z" fill="#F15822"/>
<path fill-rule="evenodd" clip-rule="evenodd" d="M94.4686 114.56L139.539 88.23C139.508 88.1506 139.471 88.0737 139.429 88C135.569 81.52 102.609 107.06 97.9286 110L91.0386 106C89.3886 105.07 85.2586 104.81 87.0386 107.51C90.9586 109.91 93.1386 112 94.4686 114.56Z" fill="#F8951D"/>
<path fill-rule="evenodd" clip-rule="evenodd" d="M98.1986 111.71L95.8186 111.6L88.4886 117.79L98.2586 114.34L98.1986 111.71Z" fill="#DB1E25"/>
<path d="M37.3704 72.2422V75.8058C37.3704 75.8456 37.3604 75.8805 37.3405 75.9104C37.3206 75.9402 37.2857 75.9651 37.2359 75.9851C37.1861 76 37.1188 76.0125 37.0342 76.0224C36.9495 76.0374 36.8474 76.0448 36.7279 76.0448C36.6034 76.0448 36.4988 76.0374 36.4141 76.0224C36.3344 76.0125 36.2672 76 36.2124 75.9851C36.1626 75.9651 36.1277 75.9402 36.1078 75.9104C36.0879 75.8805 36.0779 75.8456 36.0779 75.8058V72.2422L33.3437 66.7886C33.2889 66.6741 33.254 66.5844 33.2391 66.5197C33.2291 66.4549 33.2416 66.4051 33.2764 66.3703C33.3163 66.3354 33.3835 66.313 33.4781 66.303C33.5777 66.2931 33.7097 66.2881 33.8741 66.2881C34.0235 66.2881 34.143 66.2931 34.2327 66.303C34.3273 66.313 34.402 66.3279 34.4568 66.3479C34.5116 66.3628 34.5514 66.3877 34.5763 66.4226C34.6062 66.4524 34.6336 66.4923 34.6585 66.5421L35.9958 69.3212C36.1203 69.5852 36.2448 69.8616 36.3693 70.1504C36.4938 70.4393 36.6208 70.7307 36.7503 71.0245H36.7652C36.8798 70.7406 36.9968 70.4592 37.1164 70.1803C37.2409 69.8964 37.3654 69.6175 37.4899 69.3436L38.8346 66.5496C38.8496 66.4998 38.8695 66.4574 38.8944 66.4226C38.9243 66.3877 38.9616 66.3628 39.0064 66.3479C39.0563 66.3279 39.1235 66.313 39.2082 66.303C39.2928 66.2931 39.3999 66.2881 39.5294 66.2881C39.7087 66.2881 39.8481 66.2956 39.9478 66.3105C40.0523 66.3205 40.1246 66.3429 40.1644 66.3777C40.2042 66.4126 40.2167 66.4624 40.2018 66.5271C40.1918 66.5919 40.1594 66.6791 40.1046 66.7886L37.3704 72.2422ZM46.7013 72.3767C46.7013 72.9246 46.6291 73.4301 46.4846 73.8933C46.3402 74.3515 46.1235 74.7474 45.8347 75.0811C45.5508 75.4148 45.1922 75.6763 44.7589 75.8655C44.3306 76.0498 43.8325 76.1419 43.2647 76.1419C42.7119 76.1419 42.2288 76.0598 41.8154 75.8954C41.407 75.7311 41.0659 75.492 40.7919 75.1782C40.518 74.8645 40.3138 74.4834 40.1793 74.0352C40.0449 73.587 39.9776 73.079 39.9776 72.5112C39.9776 71.9633 40.0474 71.4603 40.1868 71.0021C40.3313 70.5389 40.5454 70.1405 40.8293 69.8068C41.1182 69.4731 41.4768 69.2141 41.9051 69.0298C42.3334 68.8456 42.8339 68.7534 43.4067 68.7534C43.9595 68.7534 44.4401 68.8356 44.8485 69C45.2619 69.1643 45.6056 69.4034 45.8795 69.7171C46.1534 70.0309 46.3576 70.4119 46.4921 70.8602C46.6315 71.3084 46.7013 71.8139 46.7013 72.3767ZM45.4014 72.4589C45.4014 72.0953 45.3665 71.7517 45.2968 71.4279C45.232 71.1042 45.1225 70.8203 44.9681 70.5763C44.8137 70.3322 44.6045 70.1405 44.3405 70.001C44.0766 69.8566 43.7479 69.7844 43.3544 69.7844C42.9908 69.7844 42.6771 69.8491 42.4131 69.9786C42.1541 70.1081 41.9399 70.2924 41.7706 70.5314C41.6013 70.7655 41.4743 71.0444 41.3896 71.3682C41.3099 71.6919 41.2701 72.0455 41.2701 72.429C41.2701 72.7976 41.3024 73.1437 41.3672 73.4674C41.4369 73.7912 41.549 74.075 41.7034 74.3191C41.8627 74.5582 42.0744 74.7499 42.3384 74.8943C42.6023 75.0338 42.9311 75.1035 43.3245 75.1035C43.6831 75.1035 43.9944 75.0388 44.2583 74.9093C44.5223 74.7798 44.739 74.598 44.9083 74.3639C45.0776 74.1298 45.2021 73.8509 45.2818 73.5272C45.3615 73.2035 45.4014 72.8474 45.4014 72.4589ZM54.2766 75.8132C54.2766 75.8531 54.2666 75.8879 54.2467 75.9178C54.2317 75.9427 54.2019 75.9651 54.157 75.9851C54.1122 76.005 54.0524 76.0199 53.9777 76.0299C53.908 76.0398 53.8208 76.0448 53.7163 76.0448C53.6017 76.0448 53.5071 76.0398 53.4324 76.0299C53.3626 76.0199 53.3054 76.005 53.2605 75.9851C53.2207 75.9651 53.1933 75.9427 53.1784 75.9178C53.1634 75.8879 53.156 75.8531 53.156 75.8132V74.9242C52.7725 75.3476 52.3939 75.6563 52.0204 75.8506C51.6469 76.0448 51.2684 76.1419 50.8849 76.1419C50.4366 76.1419 50.0581 76.0672 49.7493 75.9178C49.4455 75.7684 49.199 75.5667 49.0097 75.3127C48.8205 75.0537 48.6835 74.7549 48.5988 74.4162C48.5191 74.0726 48.4793 73.6567 48.4793 73.1686V69.0896C48.4793 69.0498 48.4868 69.0174 48.5017 68.9925C48.5216 68.9626 48.5565 68.9377 48.6063 68.9178C48.6561 68.8929 48.7208 68.8779 48.8005 68.8729C48.8802 68.863 48.9798 68.858 49.0994 68.858C49.2189 68.858 49.3185 68.863 49.3982 68.8729C49.4779 68.8779 49.5401 68.8929 49.585 68.9178C49.6348 68.9377 49.6696 68.9626 49.6896 68.9925C49.7095 69.0174 49.7194 69.0498 49.7194 69.0896V73.0042C49.7194 73.3977 49.7468 73.714 49.8016 73.953C49.8614 74.1871 49.9485 74.3888 50.0631 74.5582C50.1826 74.7225 50.332 74.852 50.5113 74.9466C50.6906 75.0363 50.8998 75.0811 51.1389 75.0811C51.4477 75.0811 51.754 74.9715 52.0578 74.7524C52.3666 74.5333 52.6928 74.212 53.0364 73.7887V69.0896C53.0364 69.0498 53.0439 69.0174 53.0588 68.9925C53.0788 68.9626 53.1136 68.9377 53.1634 68.9178C53.2132 68.8929 53.2755 68.8779 53.3502 68.8729C53.4299 68.863 53.532 68.858 53.6565 68.858C53.776 68.858 53.8756 68.863 53.9553 68.8729C54.035 68.8779 54.0973 68.8929 54.1421 68.9178C54.1869 68.9377 54.2193 68.9626 54.2392 68.9925C54.2641 69.0174 54.2766 69.0498 54.2766 69.0896V75.8132ZM60.4847 69.5304C60.4847 69.6399 60.4822 69.7321 60.4772 69.8068C60.4723 69.8815 60.4623 69.9413 60.4474 69.9861C60.4324 70.0259 60.4125 70.0583 60.3876 70.0832C60.3677 70.1031 60.3378 70.1131 60.2979 70.1131C60.2581 70.1131 60.2083 70.1031 60.1485 70.0832C60.0938 70.0583 60.029 70.0359 59.9543 70.016C59.8846 69.9911 59.8049 69.9687 59.7152 69.9487C59.6256 69.9288 59.5285 69.9188 59.4239 69.9188C59.2994 69.9188 59.1773 69.9437 59.0578 69.9936C58.9383 70.0434 58.8113 70.1255 58.6768 70.2401C58.5473 70.3546 58.4104 70.5065 58.2659 70.6958C58.1215 70.8851 57.9621 71.1167 57.7878 71.3906V75.8132C57.7878 75.8531 57.7778 75.8879 57.7579 75.9178C57.738 75.9427 57.7056 75.9651 57.6608 75.9851C57.616 76.005 57.5537 76.0199 57.474 76.0299C57.3943 76.0398 57.2922 76.0448 57.1677 76.0448C57.0482 76.0448 56.9486 76.0398 56.8689 76.0299C56.7892 76.0199 56.7245 76.005 56.6747 75.9851C56.6298 75.9651 56.5975 75.9427 56.5775 75.9178C56.5626 75.8879 56.5551 75.8531 56.5551 75.8132V69.0896C56.5551 69.0498 56.5626 69.0174 56.5775 68.9925C56.5925 68.9626 56.6224 68.9377 56.6672 68.9178C56.712 68.8929 56.7693 68.8779 56.839 68.8729C56.9087 68.863 57.0009 68.858 57.1154 68.858C57.225 68.858 57.3146 68.863 57.3844 68.8729C57.4591 68.8779 57.5164 68.8929 57.5562 68.9178C57.596 68.9377 57.6234 68.9626 57.6384 68.9925C57.6583 69.0174 57.6683 69.0498 57.6683 69.0896V70.0683C57.8525 69.7993 58.0244 69.5802 58.1837 69.4108C58.3481 69.2415 58.5025 69.1095 58.6469 69.0149C58.7914 68.9153 58.9333 68.848 59.0728 68.8132C59.2172 68.7733 59.3616 68.7534 59.5061 68.7534C59.5708 68.7534 59.643 68.7584 59.7227 68.7684C59.8074 68.7733 59.8945 68.7858 59.9842 68.8057C60.0738 68.8256 60.1535 68.848 60.2232 68.8729C60.2979 68.8979 60.3502 68.9228 60.3801 68.9477C60.41 68.9726 60.4299 68.9975 60.4399 69.0224C60.4499 69.0423 60.4573 69.0697 60.4623 69.1045C60.4723 69.1394 60.4772 69.1917 60.4772 69.2614C60.4822 69.3262 60.4847 69.4158 60.4847 69.5304ZM71.4368 69.1643C71.4368 69.6474 71.3571 70.0832 71.1977 70.4717C71.0383 70.8602 70.8092 71.1914 70.5104 71.4653C70.2166 71.7392 69.853 71.9509 69.4197 72.1003C68.9914 72.2497 68.4784 72.3244 67.8807 72.3244H66.7825V75.8058C66.7825 75.8456 66.7701 75.8805 66.7452 75.9104C66.7252 75.9402 66.6904 75.9651 66.6406 75.9851C66.5958 76 66.531 76.0125 66.4463 76.0224C66.3667 76.0374 66.2646 76.0448 66.14 76.0448C66.0155 76.0448 65.9109 76.0374 65.8263 76.0224C65.7466 76.0125 65.6818 76 65.632 75.9851C65.5822 75.9651 65.5474 75.9402 65.5274 75.9104C65.5075 75.8805 65.4976 75.8456 65.4976 75.8058V66.8857C65.4976 66.6865 65.5499 66.5446 65.6544 66.4599C65.759 66.3752 65.8761 66.3329 66.0056 66.3329H68.075C68.2841 66.3329 68.4834 66.3429 68.6726 66.3628C68.8668 66.3777 69.0935 66.4151 69.3524 66.4749C69.6164 66.5296 69.8829 66.6367 70.1518 66.7961C70.4257 66.9505 70.6573 67.1422 70.8466 67.3713C71.0358 67.6004 71.1803 67.8669 71.2799 68.1707C71.3845 68.4695 71.4368 68.8007 71.4368 69.1643ZM70.0846 69.2689C70.0846 68.8754 70.0099 68.5467 69.8605 68.2828C69.716 68.0188 69.5342 67.8221 69.3151 67.6926C69.1009 67.5631 68.8768 67.4809 68.6427 67.446C68.4136 67.4112 68.1895 67.3937 67.9704 67.3937H66.7825V71.271H67.9405C68.329 71.271 68.6502 71.2212 68.9042 71.1216C69.1632 71.022 69.3798 70.8851 69.5542 70.7107C69.7285 70.5314 69.8605 70.3198 69.9501 70.0757C70.0397 69.8267 70.0846 69.5578 70.0846 69.2689ZM77.996 75.8207C77.996 75.8805 77.9761 75.9253 77.9363 75.9552C77.8964 75.9851 77.8417 76.0075 77.7719 76.0224C77.7022 76.0374 77.6001 76.0448 77.4656 76.0448C77.3361 76.0448 77.2315 76.0374 77.1519 76.0224C77.0771 76.0075 77.0224 75.9851 76.9875 75.9552C76.9526 75.9253 76.9352 75.8805 76.9352 75.8207V75.1483C76.6414 75.4621 76.3126 75.7062 75.9491 75.8805C75.5905 76.0548 75.2095 76.1419 74.8061 76.1419C74.4524 76.1419 74.1312 76.0946 73.8423 76C73.5584 75.9104 73.3144 75.7784 73.1102 75.6041C72.911 75.4297 72.7541 75.2156 72.6396 74.9616C72.53 74.7076 72.4752 74.4187 72.4752 74.095C72.4752 73.7165 72.5524 73.3877 72.7068 73.1088C72.8612 72.8299 73.0828 72.5983 73.3717 72.4141C73.6605 72.2298 74.0142 72.0928 74.4325 72.0032C74.8509 71.9085 75.3215 71.8612 75.8445 71.8612H76.7709V71.3383C76.7709 71.0793 76.7435 70.8502 76.6887 70.651C76.6339 70.4518 76.5442 70.2874 76.4197 70.1579C76.3002 70.0234 76.1433 69.9238 75.9491 69.8591C75.7548 69.7894 75.5158 69.7545 75.2319 69.7545C74.9281 69.7545 74.6542 69.7918 74.4101 69.8666C74.171 69.9363 73.9594 70.016 73.7751 70.1056C73.5958 70.1903 73.4439 70.27 73.3194 70.3447C73.1999 70.4144 73.1102 70.4493 73.0504 70.4493C73.0106 70.4493 72.9757 70.4393 72.9459 70.4194C72.916 70.3995 72.8886 70.3696 72.8637 70.3297C72.8438 70.2899 72.8288 70.2401 72.8188 70.1803C72.8089 70.1156 72.8039 70.0458 72.8039 69.9711C72.8039 69.8466 72.8114 69.7495 72.8263 69.6798C72.8462 69.6051 72.8886 69.5354 72.9533 69.4706C73.023 69.4059 73.1401 69.3312 73.3044 69.2465C73.4688 69.1568 73.6581 69.0771 73.8722 69.0074C74.0864 68.9327 74.3205 68.8729 74.5745 68.8281C74.8285 68.7783 75.085 68.7534 75.3439 68.7534C75.8271 68.7534 76.2379 68.8082 76.5766 68.9178C76.9153 69.0273 77.1892 69.1892 77.3984 69.4034C77.6076 69.6125 77.7595 69.874 77.8541 70.1878C77.9487 70.5016 77.996 70.8676 77.996 71.286V75.8207ZM76.7709 72.7502H75.7175C75.3788 72.7502 75.085 72.7801 74.8359 72.8399C74.5869 72.8947 74.3802 72.9793 74.2159 73.0939C74.0515 73.2035 73.9295 73.3379 73.8498 73.4973C73.7751 73.6517 73.7377 73.831 73.7377 74.0352C73.7377 74.3838 73.8473 74.6627 74.0665 74.8719C74.2906 75.0761 74.6019 75.1782 75.0003 75.1782C75.324 75.1782 75.6229 75.096 75.8968 74.9317C76.1757 74.7673 76.467 74.5158 76.7709 74.1771V72.7502ZM83.614 75.3202C83.614 75.4646 83.6041 75.5792 83.5841 75.6638C83.5642 75.7485 83.5343 75.8107 83.4945 75.8506C83.4546 75.8904 83.3949 75.9278 83.3152 75.9626C83.2355 75.9975 83.1434 76.0249 83.0388 76.0448C82.9392 76.0697 82.8321 76.0896 82.7175 76.1046C82.603 76.1195 82.4884 76.127 82.3739 76.127C82.0252 76.127 81.7264 76.0822 81.4774 75.9925C81.2284 75.8979 81.0242 75.7584 80.8648 75.5742C80.7054 75.3849 80.5884 75.1483 80.5137 74.8645C80.4439 74.5756 80.4091 74.2369 80.4091 73.8484V69.9188H79.4678C79.3931 69.9188 79.3333 69.879 79.2885 69.7993C79.2437 69.7196 79.2212 69.5901 79.2212 69.4108C79.2212 69.3162 79.2262 69.2365 79.2362 69.1718C79.2511 69.107 79.2686 69.0547 79.2885 69.0149C79.3084 68.9701 79.3333 68.9402 79.3632 68.9252C79.398 68.9053 79.4354 68.8954 79.4752 68.8954H80.4091V67.2966C80.4091 67.2618 80.4166 67.2294 80.4315 67.1995C80.4514 67.1696 80.4838 67.1447 80.5286 67.1248C80.5784 67.0999 80.6432 67.0825 80.7229 67.0725C80.8025 67.0625 80.9021 67.0576 81.0217 67.0576C81.1462 67.0576 81.2483 67.0625 81.328 67.0725C81.4077 67.0825 81.4699 67.0999 81.5147 67.1248C81.5596 67.1447 81.5919 67.1696 81.6119 67.1995C81.6318 67.2294 81.6417 67.2618 81.6417 67.2966V68.8954H83.3675C83.4073 68.8954 83.4422 68.9053 83.4721 68.9252C83.502 68.9402 83.5269 68.9701 83.5468 69.0149C83.5717 69.0547 83.5891 69.107 83.5991 69.1718C83.609 69.2365 83.614 69.3162 83.614 69.4108C83.614 69.5901 83.5916 69.7196 83.5468 69.7993C83.502 69.879 83.4422 69.9188 83.3675 69.9188H81.6417V73.6691C81.6417 74.1323 81.709 74.4834 81.8435 74.7225C81.9829 74.9566 82.2294 75.0736 82.5831 75.0736C82.6976 75.0736 82.7997 75.0637 82.8894 75.0437C82.979 75.0188 83.0587 74.9939 83.1284 74.969C83.1981 74.9441 83.2579 74.9217 83.3077 74.9018C83.3575 74.8769 83.4023 74.8645 83.4422 74.8645C83.4671 74.8645 83.4895 74.8719 83.5094 74.8869C83.5343 74.8968 83.5518 74.9192 83.5617 74.9541C83.5767 74.989 83.5891 75.0363 83.5991 75.096C83.609 75.1558 83.614 75.2305 83.614 75.3202ZM91.0324 75.8132C91.0324 75.8531 91.0225 75.8879 91.0025 75.9178C90.9826 75.9427 90.9502 75.9651 90.9054 75.9851C90.8606 76.005 90.7983 76.0199 90.7187 76.0299C90.639 76.0398 90.5394 76.0448 90.4198 76.0448C90.2953 76.0448 90.1932 76.0398 90.1135 76.0299C90.0338 76.0199 89.9716 76.005 89.9268 75.9851C89.8819 75.9651 89.8496 75.9427 89.8296 75.9178C89.8097 75.8879 89.7998 75.8531 89.7998 75.8132V71.8762C89.7998 71.4927 89.7699 71.1839 89.7101 70.9498C89.6503 70.7157 89.5632 70.514 89.4486 70.3447C89.3341 70.1753 89.1847 70.0458 89.0004 69.9562C88.8211 69.8666 88.6119 69.8217 88.3729 69.8217C88.0641 69.8217 87.7553 69.9313 87.4465 70.1504C87.1377 70.3696 86.814 70.6908 86.4753 71.1142V75.8132C86.4753 75.8531 86.4653 75.8879 86.4454 75.9178C86.4255 75.9427 86.3931 75.9651 86.3483 75.9851C86.3035 76.005 86.2412 76.0199 86.1615 76.0299C86.0818 76.0398 85.9797 76.0448 85.8552 76.0448C85.7357 76.0448 85.6361 76.0398 85.5564 76.0299C85.4767 76.0199 85.412 76.005 85.3622 75.9851C85.3173 75.9651 85.285 75.9427 85.265 75.9178C85.2501 75.8879 85.2426 75.8531 85.2426 75.8132V65.8324C85.2426 65.7925 85.2501 65.7577 85.265 65.7278C85.285 65.6979 85.3173 65.673 85.3622 65.6531C85.412 65.6332 85.4767 65.6182 85.5564 65.6083C85.6361 65.5983 85.7357 65.5933 85.8552 65.5933C85.9797 65.5933 86.0818 65.5983 86.1615 65.6083C86.2412 65.6182 86.3035 65.6332 86.3483 65.6531C86.3931 65.673 86.4255 65.6979 86.4454 65.7278C86.4653 65.7577 86.4753 65.7925 86.4753 65.8324V69.8591C86.8289 69.4855 87.185 69.2091 87.5436 69.0298C87.9022 68.8456 88.2633 68.7534 88.6269 68.7534C89.0751 68.7534 89.4511 68.8306 89.7549 68.985C90.0637 69.1344 90.3127 69.3361 90.502 69.5901C90.6913 69.8441 90.8257 70.143 90.9054 70.4866C90.9901 70.8253 91.0324 71.2362 91.0324 71.7193V75.8132ZM102.582 69.0747C102.582 69.1095 102.577 69.1519 102.567 69.2017C102.557 69.2515 102.54 69.3137 102.515 69.3884L100.535 75.7759C100.52 75.8307 100.495 75.8755 100.46 75.9104C100.431 75.9452 100.386 75.9726 100.326 75.9925C100.271 76.0125 100.194 76.0249 100.094 76.0299C99.9948 76.0398 99.8703 76.0448 99.7209 76.0448C99.5665 76.0448 99.437 76.0398 99.3324 76.0299C99.2278 76.0199 99.1431 76.005 99.0784 75.9851C99.0186 75.9651 98.9738 75.9377 98.9439 75.9029C98.914 75.868 98.8916 75.8257 98.8767 75.7759L97.4647 70.8975L97.4498 70.8303L97.4348 70.8975L96.1274 75.7759C96.1125 75.8307 96.0876 75.8755 96.0527 75.9104C96.0229 75.9452 95.9755 75.9726 95.9108 75.9925C95.846 76.0125 95.7614 76.0249 95.6568 76.0299C95.5572 76.0398 95.4327 76.0448 95.2833 76.0448C95.1289 76.0448 95.0019 76.0398 94.9022 76.0299C94.8076 76.0199 94.7279 76.005 94.6632 75.9851C94.6034 75.9651 94.5586 75.9377 94.5287 75.9029C94.4988 75.868 94.4764 75.8257 94.4615 75.7759L92.4967 69.3884C92.4718 69.3137 92.4543 69.2515 92.4444 69.2017C92.4344 69.1519 92.4294 69.1095 92.4294 69.0747C92.4294 69.0298 92.4394 68.995 92.4593 68.9701C92.4792 68.9402 92.5116 68.9178 92.5564 68.9028C92.6063 68.8829 92.671 68.8705 92.7507 68.8655C92.8304 68.8605 92.9275 68.858 93.042 68.858C93.1815 68.858 93.2936 68.863 93.3782 68.8729C93.4629 68.8779 93.5276 68.8904 93.5725 68.9103C93.6173 68.9252 93.6497 68.9501 93.6696 68.985C93.6895 69.0149 93.7069 69.0522 93.7219 69.0971L95.343 74.6403L95.358 74.7076L95.3729 74.6403L96.8596 69.0971C96.8695 69.0522 96.8845 69.0149 96.9044 68.985C96.9293 68.9501 96.9642 68.9252 97.009 68.9103C97.0538 68.8904 97.1136 68.8779 97.1883 68.8729C97.268 68.863 97.3701 68.858 97.4946 68.858C97.6141 68.858 97.7112 68.863 97.7859 68.8729C97.8656 68.8779 97.9279 68.8904 97.9727 68.9103C98.0175 68.9252 98.0499 68.9477 98.0698 68.9775C98.0897 69.0074 98.1047 69.0423 98.1146 69.0821L99.7209 74.6403L99.7358 74.7076L99.7433 74.6403L101.342 69.0971C101.352 69.0522 101.367 69.0149 101.387 68.985C101.412 68.9501 101.447 68.9252 101.491 68.9103C101.541 68.8904 101.606 68.8779 101.686 68.8729C101.77 68.863 101.877 68.858 102.007 68.858C102.126 68.858 102.221 68.8605 102.291 68.8655C102.365 68.8705 102.423 68.8829 102.463 68.9028C102.507 68.9228 102.537 68.9452 102.552 68.9701C102.572 68.995 102.582 69.0298 102.582 69.0747ZM108.999 75.8207C108.999 75.8805 108.98 75.9253 108.94 75.9552C108.9 75.9851 108.845 76.0075 108.775 76.0224C108.706 76.0374 108.604 76.0448 108.469 76.0448C108.34 76.0448 108.235 76.0374 108.155 76.0224C108.081 76.0075 108.026 75.9851 107.991 75.9552C107.956 75.9253 107.939 75.8805 107.939 75.8207V75.1483C107.645 75.4621 107.316 75.7062 106.952 75.8805C106.594 76.0548 106.213 76.1419 105.809 76.1419C105.456 76.1419 105.135 76.0946 104.846 76C104.562 75.9104 104.318 75.7784 104.114 75.6041C103.914 75.4297 103.758 75.2156 103.643 74.9616C103.533 74.7076 103.479 74.4187 103.479 74.095C103.479 73.7165 103.556 73.3877 103.71 73.1088C103.865 72.8299 104.086 72.5983 104.375 72.4141C104.664 72.2298 105.018 72.0928 105.436 72.0032C105.854 71.9085 106.325 71.8612 106.848 71.8612H107.774V71.3383C107.774 71.0793 107.747 70.8502 107.692 70.651C107.637 70.4518 107.548 70.2874 107.423 70.1579C107.304 70.0234 107.147 69.9238 106.952 69.8591C106.758 69.7894 106.519 69.7545 106.235 69.7545C105.931 69.7545 105.658 69.7918 105.414 69.8666C105.174 69.9363 104.963 70.016 104.779 70.1056C104.599 70.1903 104.447 70.27 104.323 70.3447C104.203 70.4144 104.114 70.4493 104.054 70.4493C104.014 70.4493 103.979 70.4393 103.949 70.4194C103.919 70.3995 103.892 70.3696 103.867 70.3297C103.847 70.2899 103.832 70.2401 103.822 70.1803C103.812 70.1156 103.807 70.0458 103.807 69.9711C103.807 69.8466 103.815 69.7495 103.83 69.6798C103.85 69.6051 103.892 69.5354 103.957 69.4706C104.026 69.4059 104.144 69.3312 104.308 69.2465C104.472 69.1568 104.661 69.0771 104.876 69.0074C105.09 68.9327 105.324 68.8729 105.578 68.8281C105.832 68.7783 106.088 68.7534 106.347 68.7534C106.83 68.7534 107.241 68.8082 107.58 68.9178C107.919 69.0273 108.193 69.1892 108.402 69.4034C108.611 69.6125 108.763 69.874 108.858 70.1878C108.952 70.5016 108.999 70.8676 108.999 71.286V75.8207ZM107.774 72.7502H106.721C106.382 72.7502 106.088 72.7801 105.839 72.8399C105.59 72.8947 105.384 72.9793 105.219 73.0939C105.055 73.2035 104.933 73.3379 104.853 73.4973C104.779 73.6517 104.741 73.831 104.741 74.0352C104.741 74.3838 104.851 74.6627 105.07 74.8719C105.294 75.0761 105.605 75.1782 106.004 75.1782C106.327 75.1782 106.626 75.096 106.9 74.9317C107.179 74.7673 107.47 74.5158 107.774 74.1771V72.7502ZM114.05 76L113.153 78.4728C113.123 78.5525 113.046 78.6123 112.922 78.6521C112.802 78.6969 112.618 78.7193 112.369 78.7193C112.239 78.7193 112.135 78.7119 112.055 78.6969C111.975 78.687 111.913 78.667 111.868 78.6372C111.828 78.6073 111.806 78.5674 111.801 78.5176C111.796 78.4678 111.808 78.4081 111.838 78.3383L112.765 76C112.72 75.9801 112.678 75.9477 112.638 75.9029C112.598 75.8581 112.57 75.8107 112.556 75.7609L110.157 69.3361C110.118 69.2315 110.098 69.1494 110.098 69.0896C110.098 69.0298 110.118 68.9825 110.157 68.9477C110.197 68.9128 110.262 68.8904 110.352 68.8804C110.441 68.8655 110.561 68.858 110.71 68.858C110.86 68.858 110.977 68.863 111.061 68.8729C111.146 68.8779 111.213 68.8904 111.263 68.9103C111.313 68.9302 111.348 68.9601 111.368 69C111.393 69.0348 111.417 69.0846 111.442 69.1494L113.362 74.5432H113.385L115.237 69.1195C115.267 69.0249 115.302 68.9651 115.342 68.9402C115.387 68.9103 115.452 68.8904 115.536 68.8804C115.621 68.8655 115.743 68.858 115.902 68.858C116.042 68.858 116.156 68.8655 116.246 68.8804C116.336 68.8904 116.4 68.9128 116.44 68.9477C116.485 68.9825 116.508 69.0298 116.508 69.0896C116.508 69.1494 116.493 69.2241 116.463 69.3137L114.05 76ZM127.587 66.8857C127.587 66.9804 127.582 67.0625 127.572 67.1323C127.562 67.202 127.544 67.2593 127.519 67.3041C127.499 67.3439 127.472 67.3738 127.437 67.3937C127.407 67.4137 127.372 67.4236 127.333 67.4236H124.613V75.8058C124.613 75.8456 124.603 75.8805 124.583 75.9104C124.563 75.9402 124.529 75.9651 124.479 75.9851C124.429 76 124.362 76.0125 124.277 76.0224C124.197 76.0374 124.095 76.0448 123.971 76.0448C123.851 76.0448 123.749 76.0374 123.664 76.0224C123.58 76.0125 123.513 76 123.463 75.9851C123.413 75.9651 123.378 75.9402 123.358 75.9104C123.338 75.8805 123.328 75.8456 123.328 75.8058V67.4236H120.609C120.569 67.4236 120.532 67.4137 120.497 67.3937C120.467 67.3738 120.442 67.3439 120.422 67.3041C120.402 67.2593 120.385 67.202 120.37 67.1323C120.36 67.0625 120.355 66.9804 120.355 66.8857C120.355 66.7911 120.36 66.7089 120.37 66.6392C120.385 66.5645 120.402 66.5047 120.422 66.4599C120.442 66.4151 120.467 66.3827 120.497 66.3628C120.532 66.3429 120.569 66.3329 120.609 66.3329H127.333C127.372 66.3329 127.407 66.3429 127.437 66.3628C127.472 66.3827 127.499 66.4151 127.519 66.4599C127.544 66.5047 127.562 66.5645 127.572 66.6392C127.582 66.7089 127.587 66.7911 127.587 66.8857ZM133.735 72.3767C133.735 72.9246 133.663 73.4301 133.518 73.8933C133.374 74.3515 133.157 74.7474 132.868 75.0811C132.584 75.4148 132.226 75.6763 131.793 75.8655C131.364 76.0498 130.866 76.1419 130.298 76.1419C129.746 76.1419 129.263 76.0598 128.849 75.8954C128.441 75.7311 128.1 75.492 127.826 75.1782C127.552 74.8645 127.348 74.4834 127.213 74.0352C127.079 73.587 127.011 73.079 127.011 72.5112C127.011 71.9633 127.081 71.4603 127.221 71.0021C127.365 70.5389 127.579 70.1405 127.863 69.8068C128.152 69.4731 128.51 69.2141 128.939 69.0298C129.367 68.8456 129.868 68.7534 130.44 68.7534C130.993 68.7534 131.474 68.8356 131.882 69C132.296 69.1643 132.639 69.4034 132.913 69.7171C133.187 70.0309 133.391 70.4119 133.526 70.8602C133.665 71.3084 133.735 71.8139 133.735 72.3767ZM132.435 72.4589C132.435 72.0953 132.4 71.7517 132.33 71.4279C132.266 71.1042 132.156 70.8203 132.002 70.5763C131.847 70.3322 131.638 70.1405 131.374 70.001C131.11 69.8566 130.782 69.7844 130.388 69.7844C130.025 69.7844 129.711 69.8491 129.447 69.9786C129.188 70.1081 128.974 70.2924 128.804 70.5314C128.635 70.7655 128.508 71.0444 128.423 71.3682C128.344 71.6919 128.304 72.0455 128.304 72.429C128.304 72.7976 128.336 73.1437 128.401 73.4674C128.471 73.7912 128.583 74.075 128.737 74.3191C128.896 74.5582 129.108 74.7499 129.372 74.8943C129.636 75.0338 129.965 75.1035 130.358 75.1035C130.717 75.1035 131.028 75.0388 131.292 74.9093C131.556 74.7798 131.773 74.598 131.942 74.3639C132.111 74.1298 132.236 73.8509 132.316 73.5272C132.395 73.2035 132.435 72.8474 132.435 72.4589ZM145.613 74.6329C145.613 74.7125 145.611 74.7823 145.606 74.842C145.601 74.9018 145.591 74.9541 145.576 74.9989C145.566 75.0437 145.551 75.0836 145.531 75.1185C145.511 75.1533 145.476 75.1957 145.427 75.2455C145.377 75.2953 145.272 75.3725 145.113 75.4771C144.953 75.5767 144.754 75.6763 144.515 75.7759C144.281 75.8705 144.01 75.9502 143.701 76.0149C143.397 76.0847 143.063 76.1195 142.7 76.1195C142.072 76.1195 141.504 76.0149 140.996 75.8058C140.493 75.5966 140.063 75.2878 139.704 74.8794C139.35 74.471 139.077 73.968 138.882 73.3703C138.693 72.7677 138.598 72.0754 138.598 71.2935C138.598 70.4916 138.7 69.7769 138.905 69.1494C139.114 68.5218 139.405 67.9914 139.779 67.5581C140.152 67.1198 140.598 66.7861 141.116 66.557C141.639 66.3279 142.217 66.2134 142.849 66.2134C143.128 66.2134 143.4 66.2408 143.664 66.2956C143.927 66.3454 144.172 66.4101 144.396 66.4898C144.62 66.5695 144.819 66.6616 144.993 66.7662C145.168 66.8708 145.287 66.958 145.352 67.0277C145.422 67.0924 145.466 67.1422 145.486 67.1771C145.506 67.212 145.521 67.2543 145.531 67.3041C145.546 67.3489 145.556 67.4037 145.561 67.4685C145.571 67.5332 145.576 67.6104 145.576 67.7C145.576 67.7997 145.571 67.8843 145.561 67.9541C145.551 68.0238 145.536 68.0835 145.516 68.1333C145.496 68.1782 145.471 68.213 145.442 68.2379C145.417 68.2579 145.384 68.2678 145.344 68.2678C145.275 68.2678 145.178 68.2205 145.053 68.1259C144.929 68.0263 144.767 67.9192 144.567 67.8046C144.373 67.6851 144.134 67.578 143.85 67.4834C143.571 67.3838 143.235 67.334 142.842 67.334C142.413 67.334 142.022 67.4211 141.669 67.5955C141.32 67.7648 141.021 68.0163 140.772 68.35C140.523 68.6837 140.329 69.0921 140.19 69.5752C140.055 70.0533 139.988 70.6012 139.988 71.2187C139.988 71.8313 140.053 72.3742 140.182 72.8474C140.317 73.3155 140.506 73.709 140.75 74.0277C140.999 74.3415 141.303 74.5806 141.661 74.7449C142.02 74.9043 142.426 74.984 142.879 74.984C143.263 74.984 143.596 74.9367 143.88 74.842C144.169 74.7474 144.413 74.6428 144.612 74.5283C144.817 74.4087 144.983 74.3017 145.113 74.207C145.242 74.1124 145.344 74.0651 145.419 74.0651C145.454 74.0651 145.484 74.0726 145.509 74.0875C145.534 74.1024 145.554 74.1323 145.569 74.1771C145.583 74.217 145.593 74.2743 145.598 74.349C145.608 74.4237 145.613 74.5183 145.613 74.6329ZM152.24 75.8207C152.24 75.8805 152.22 75.9253 152.18 75.9552C152.14 75.9851 152.085 76.0075 152.016 76.0224C151.946 76.0374 151.844 76.0448 151.709 76.0448C151.58 76.0448 151.475 76.0374 151.396 76.0224C151.321 76.0075 151.266 75.9851 151.231 75.9552C151.196 75.9253 151.179 75.8805 151.179 75.8207V75.1483C150.885 75.4621 150.556 75.7062 150.193 75.8805C149.834 76.0548 149.453 76.1419 149.05 76.1419C148.696 76.1419 148.375 76.0946 148.086 76C147.802 75.9104 147.558 75.7784 147.354 75.6041C147.155 75.4297 146.998 75.2156 146.883 74.9616C146.774 74.7076 146.719 74.4187 146.719 74.095C146.719 73.7165 146.796 73.3877 146.951 73.1088C147.105 72.8299 147.327 72.5983 147.616 72.4141C147.904 72.2298 148.258 72.0928 148.676 72.0032C149.095 71.9085 149.565 71.8612 150.088 71.8612H151.015V71.3383C151.015 71.0793 150.987 70.8502 150.933 70.651C150.878 70.4518 150.788 70.2874 150.664 70.1579C150.544 70.0234 150.387 69.9238 150.193 69.8591C149.999 69.7894 149.76 69.7545 149.476 69.7545C149.172 69.7545 148.898 69.7918 148.654 69.8666C148.415 69.9363 148.203 70.016 148.019 70.1056C147.84 70.1903 147.688 70.27 147.563 70.3447C147.444 70.4144 147.354 70.4493 147.294 70.4493C147.254 70.4493 147.22 70.4393 147.19 70.4194C147.16 70.3995 147.132 70.3696 147.108 70.3297C147.088 70.2899 147.073 70.2401 147.063 70.1803C147.053 70.1156 147.048 70.0458 147.048 69.9711C147.048 69.8466 147.055 69.7495 147.07 69.6798C147.09 69.6051 147.132 69.5354 147.197 69.4706C147.267 69.4059 147.384 69.3312 147.548 69.2465C147.713 69.1568 147.902 69.0771 148.116 69.0074C148.33 68.9327 148.564 68.8729 148.818 68.8281C149.072 68.7783 149.329 68.7534 149.588 68.7534C150.071 68.7534 150.482 68.8082 150.82 68.9178C151.159 69.0273 151.433 69.1892 151.642 69.4034C151.851 69.6125 152.003 69.874 152.098 70.1878C152.193 70.5016 152.24 70.8676 152.24 71.286V75.8207ZM151.015 72.7502H149.961C149.623 72.7502 149.329 72.7801 149.08 72.8399C148.831 72.8947 148.624 72.9793 148.46 73.0939C148.295 73.2035 148.173 73.3379 148.094 73.4973C148.019 73.6517 147.982 73.831 147.982 74.0352C147.982 74.3838 148.091 74.6627 148.31 74.8719C148.534 75.0761 148.846 75.1782 149.244 75.1782C149.568 75.1782 149.867 75.096 150.141 74.9317C150.42 74.7673 150.711 74.5158 151.015 74.1771V72.7502ZM160.301 75.8132C160.301 75.8531 160.291 75.8879 160.271 75.9178C160.251 75.9427 160.219 75.9651 160.174 75.9851C160.129 76.005 160.067 76.0199 159.987 76.0299C159.907 76.0398 159.808 76.0448 159.688 76.0448C159.564 76.0448 159.462 76.0398 159.382 76.0299C159.302 76.0199 159.24 76.005 159.195 75.9851C159.15 75.9651 159.118 75.9427 159.098 75.9178C159.078 75.8879 159.068 75.8531 159.068 75.8132V71.8762C159.068 71.4927 159.038 71.1839 158.978 70.9498C158.919 70.7157 158.832 70.514 158.717 70.3447C158.602 70.1753 158.453 70.0458 158.269 69.9562C158.089 69.8666 157.88 69.8217 157.641 69.8217C157.332 69.8217 157.024 69.9313 156.715 70.1504C156.406 70.3696 156.082 70.6908 155.744 71.1142V75.8132C155.744 75.8531 155.734 75.8879 155.714 75.9178C155.694 75.9427 155.661 75.9651 155.617 75.9851C155.572 76.005 155.51 76.0199 155.43 76.0299C155.35 76.0398 155.248 76.0448 155.124 76.0448C155.004 76.0448 154.904 76.0398 154.825 76.0299C154.745 76.0199 154.68 76.005 154.631 75.9851C154.586 75.9651 154.553 75.9427 154.533 75.9178C154.518 75.8879 154.511 75.8531 154.511 75.8132V69.0896C154.511 69.0498 154.518 69.0174 154.533 68.9925C154.548 68.9626 154.578 68.9377 154.623 68.9178C154.668 68.8929 154.725 68.8779 154.795 68.8729C154.865 68.863 154.957 68.858 155.071 68.858C155.181 68.858 155.271 68.863 155.34 68.8729C155.415 68.8779 155.472 68.8929 155.512 68.9178C155.552 68.9377 155.579 68.9626 155.594 68.9925C155.614 69.0174 155.624 69.0498 155.624 69.0896V69.9786C156.003 69.5553 156.379 69.2465 156.752 69.0522C157.131 68.853 157.512 68.7534 157.895 68.7534C158.343 68.7534 158.719 68.8306 159.023 68.985C159.332 69.1344 159.581 69.3361 159.77 69.5901C159.96 69.8441 160.094 70.143 160.174 70.4866C160.258 70.8253 160.301 71.2337 160.301 71.7118V75.8132ZM167.615 75.8207C167.615 75.8805 167.595 75.9253 167.555 75.9552C167.515 75.9851 167.46 76.0075 167.39 76.0224C167.321 76.0374 167.219 76.0448 167.084 76.0448C166.955 76.0448 166.85 76.0374 166.77 76.0224C166.696 76.0075 166.641 75.9851 166.606 75.9552C166.571 75.9253 166.554 75.8805 166.554 75.8207V75.1483C166.26 75.4621 165.931 75.7062 165.568 75.8805C165.209 76.0548 164.828 76.1419 164.425 76.1419C164.071 76.1419 163.75 76.0946 163.461 76C163.177 75.9104 162.933 75.7784 162.729 75.6041C162.53 75.4297 162.373 75.2156 162.258 74.9616C162.149 74.7076 162.094 74.4187 162.094 74.095C162.094 73.7165 162.171 73.3877 162.325 73.1088C162.48 72.8299 162.701 72.5983 162.99 72.4141C163.279 72.2298 163.633 72.0928 164.051 72.0032C164.469 71.9085 164.94 71.8612 165.463 71.8612H166.389V71.3383C166.389 71.0793 166.362 70.8502 166.307 70.651C166.252 70.4518 166.163 70.2874 166.038 70.1579C165.919 70.0234 165.762 69.9238 165.568 69.8591C165.373 69.7894 165.134 69.7545 164.85 69.7545C164.547 69.7545 164.273 69.7918 164.029 69.8666C163.79 69.9363 163.578 70.016 163.394 70.1056C163.214 70.1903 163.062 70.27 162.938 70.3447C162.818 70.4144 162.729 70.4493 162.669 70.4493C162.629 70.4493 162.594 70.4393 162.564 70.4194C162.535 70.3995 162.507 70.3696 162.482 70.3297C162.462 70.2899 162.447 70.2401 162.437 70.1803C162.427 70.1156 162.422 70.0458 162.422 69.9711C162.422 69.8466 162.43 69.7495 162.445 69.6798C162.465 69.6051 162.507 69.5354 162.572 69.4706C162.642 69.4059 162.759 69.3312 162.923 69.2465C163.087 69.1568 163.277 69.0771 163.491 69.0074C163.705 68.9327 163.939 68.8729 164.193 68.8281C164.447 68.7783 164.704 68.7534 164.963 68.7534C165.446 68.7534 165.856 68.8082 166.195 68.9178C166.534 69.0273 166.808 69.1892 167.017 69.4034C167.226 69.6125 167.378 69.874 167.473 70.1878C167.567 70.5016 167.615 70.8676 167.615 71.286V75.8207ZM166.389 72.7502H165.336C164.997 72.7502 164.704 72.7801 164.454 72.8399C164.205 72.8947 163.999 72.9793 163.834 73.0939C163.67 73.2035 163.548 73.3379 163.468 73.4973C163.394 73.6517 163.356 73.831 163.356 74.0352C163.356 74.3838 163.466 74.6627 163.685 74.8719C163.909 75.0761 164.22 75.1782 164.619 75.1782C164.943 75.1782 165.241 75.096 165.515 74.9317C165.794 74.7673 166.086 74.5158 166.389 74.1771V72.7502ZM175.646 75.8132C175.646 75.8531 175.636 75.8879 175.616 75.9178C175.601 75.9477 175.571 75.9726 175.526 75.9925C175.486 76.0075 175.431 76.0199 175.362 76.0299C175.292 76.0398 175.207 76.0448 175.108 76.0448C175.003 76.0448 174.916 76.0398 174.846 76.0299C174.777 76.0199 174.719 76.0075 174.674 75.9925C174.63 75.9726 174.597 75.9477 174.577 75.9178C174.557 75.8879 174.547 75.8531 174.547 75.8132V74.9242C174.194 75.3077 173.825 75.6065 173.442 75.8207C173.063 76.0349 172.647 76.1419 172.194 76.1419C171.701 76.1419 171.28 76.0473 170.932 75.8581C170.583 75.6638 170.299 75.4048 170.08 75.0811C169.866 74.7524 169.709 74.3689 169.609 73.9306C169.51 73.4874 169.46 73.0217 169.46 72.5336C169.46 71.9559 169.522 71.4354 169.647 70.9722C169.771 70.5041 169.955 70.1056 170.199 69.7769C170.444 69.4482 170.745 69.1967 171.103 69.0224C171.467 68.8431 171.885 68.7534 172.358 68.7534C172.752 68.7534 173.111 68.8406 173.434 69.0149C173.763 69.1842 174.087 69.4357 174.405 69.7694V65.8623C174.405 65.8274 174.413 65.795 174.428 65.7651C174.448 65.7303 174.483 65.7054 174.532 65.6904C174.582 65.6705 174.645 65.6556 174.719 65.6456C174.799 65.6307 174.899 65.6232 175.018 65.6232C175.143 65.6232 175.245 65.6307 175.324 65.6456C175.404 65.6556 175.466 65.6705 175.511 65.6904C175.556 65.7054 175.588 65.7303 175.608 65.7651C175.633 65.795 175.646 65.8274 175.646 65.8623V75.8132ZM174.405 71.0843C174.072 70.6709 173.748 70.3571 173.434 70.143C173.125 69.9238 172.802 69.8143 172.463 69.8143C172.149 69.8143 171.883 69.889 171.664 70.0384C171.445 70.1878 171.265 70.3845 171.126 70.6286C170.991 70.8726 170.892 71.149 170.827 71.4578C170.767 71.7666 170.737 72.0804 170.737 72.3991C170.737 72.7378 170.762 73.069 170.812 73.3927C170.867 73.7165 170.959 74.0053 171.088 74.2593C171.218 74.5083 171.39 74.7101 171.604 74.8645C171.818 75.0139 172.087 75.0886 172.411 75.0886C172.575 75.0886 172.732 75.0662 172.881 75.0213C173.036 74.9765 173.193 74.9018 173.352 74.7972C173.511 74.6926 173.678 74.5582 173.853 74.3938C174.027 74.2245 174.211 74.0178 174.405 73.7737V71.0843ZM182.989 75.8207C182.989 75.8805 182.969 75.9253 182.93 75.9552C182.89 75.9851 182.835 76.0075 182.765 76.0224C182.695 76.0374 182.593 76.0448 182.459 76.0448C182.329 76.0448 182.225 76.0374 182.145 76.0224C182.07 76.0075 182.016 75.9851 181.981 75.9552C181.946 75.9253 181.928 75.8805 181.928 75.8207V75.1483C181.635 75.4621 181.306 75.7062 180.942 75.8805C180.584 76.0548 180.203 76.1419 179.799 76.1419C179.446 76.1419 179.124 76.0946 178.836 76C178.552 75.9104 178.308 75.7784 178.103 75.6041C177.904 75.4297 177.747 75.2156 177.633 74.9616C177.523 74.7076 177.468 74.4187 177.468 74.095C177.468 73.7165 177.546 73.3877 177.7 73.1088C177.854 72.8299 178.076 72.5983 178.365 72.4141C178.654 72.2298 179.007 72.0928 179.426 72.0032C179.844 71.9085 180.315 71.8612 180.838 71.8612H181.764V71.3383C181.764 71.0793 181.737 70.8502 181.682 70.651C181.627 70.4518 181.538 70.2874 181.413 70.1579C181.293 70.0234 181.137 69.9238 180.942 69.8591C180.748 69.7894 180.509 69.7545 180.225 69.7545C179.921 69.7545 179.647 69.7918 179.403 69.8666C179.164 69.9363 178.953 70.016 178.768 70.1056C178.589 70.1903 178.437 70.27 178.313 70.3447C178.193 70.4144 178.103 70.4493 178.044 70.4493C178.004 70.4493 177.969 70.4393 177.939 70.4194C177.909 70.3995 177.882 70.3696 177.857 70.3297C177.837 70.2899 177.822 70.2401 177.812 70.1803C177.802 70.1156 177.797 70.0458 177.797 69.9711C177.797 69.8466 177.805 69.7495 177.82 69.6798C177.84 69.6051 177.882 69.5354 177.947 69.4706C178.016 69.4059 178.133 69.3312 178.298 69.2465C178.462 69.1568 178.651 69.0771 178.865 69.0074C179.08 68.9327 179.314 68.8729 179.568 68.8281C179.822 68.7783 180.078 68.7534 180.337 68.7534C180.82 68.7534 181.231 68.8082 181.57 68.9178C181.909 69.0273 182.182 69.1892 182.392 69.4034C182.601 69.6125 182.753 69.874 182.847 70.1878C182.942 70.5016 182.989 70.8676 182.989 71.286V75.8207ZM181.764 72.7502H180.711C180.372 72.7502 180.078 72.7801 179.829 72.8399C179.58 72.8947 179.373 72.9793 179.209 73.0939C179.045 73.2035 178.923 73.3379 178.843 73.4973C178.768 73.6517 178.731 73.831 178.731 74.0352C178.731 74.3838 178.841 74.6627 179.06 74.8719C179.284 75.0761 179.595 75.1782 179.994 75.1782C180.317 75.1782 180.616 75.096 180.89 74.9317C181.169 74.7673 181.46 74.5158 181.764 74.1771V72.7502Z" fill="#FAFAFA"/>
</svg>
